<svg xmlns="http://www.w3.org/2000/svg" xmlns:xlink="http://www.w3.org/1999/xlink" xmlns:lucid="lucid" width="2801" height="1008.45"><g transform="translate(-1239.5 -552.0474742071174)" lucid:page-tab-id="0_0"><path d="M1340 675.85v9.93m0 9.92v19.84m0 9.92v19.84m0 9.93v19.84m0 9.92v19.83m0 9.93v19.84m0 9.92v19.84m0 9.92v19.85m0 9.92v19.84m0 9.9v19.86m0 9.92v19.84m0 9.92v19.85m0 9.9v19.85m0 9.92v19.85m0 9.92v19.84m0 9.92v19.85m0 9.92V1162m0 9.93v19.85m0 9.92v19.84m0 9.92v19.84m0 9.93v19.84m0 9.92v19.83m0 9.93v19.84m0 9.92v19.84m0 9.92v19.85m0 9.92v19.84m0 9.9v19.86m0 9.92v9.92" stroke="#333" fill="none"/><path d="M1340.47 675.87h-.94v-.52h.94z" stroke="#333" stroke-width=".05" fill="#333"/><path d="M1340 1479.5v.5M1654.23 681.85l.12 9.83m.12 9.84l.24 19.66m.13 9.83l.24 19.67m.12 9.84l.23 19.67m.12 9.83l.24 19.66m.1 9.83l.25 19.66m.12 9.83l.24 19.65m.13 9.83l.24 19.66m.12 9.84l.23 19.66m.12 9.83l.24 19.66m.1 9.83l.25 19.67m.12 9.83l.24 19.66m.13 9.83l.24 19.66m.12 9.85l.23 19.66m.12 9.84l.24 19.66m.1 9.84l.25 19.66m.12 9.83l.24 19.66m.13 9.82l.24 19.67m.12 9.82l.23 19.66m.12 9.83l.24 19.67m.1 9.84l.25 19.67m.12 9.83l.24 19.66m.13 9.83l.24 19.66m.12 9.83l.23 19.65m.12 9.83l.24 19.66m.1 9.84l.25 19.66m.12 9.83l.24 19.66m.13 9.83l.25 19.67m.12 9.83l.12 9.83" stroke="#333" fill="none"/><path d="M1654.7 681.86h-.94v-.5h.94z" stroke="#333" stroke-width=".05" fill="#333"/><path d="M1664.32 1507.68v.5" stroke="#333" fill="none"/><path d="M2025.63 1516.9h-.95v-9.84h.95zm0-19.67h-.95v-19.67h.95zm0-29.5h-.95v-19.68h.95zm0-29.5h-.95v-19.68h.95zm0-29.52h-.95v-19.66h.95zm0-29.5h-.95v-19.66h.95zm0-29.5h-.95v-19.66h.95zm0-29.5h-.95v-19.67h.95zm0-29.5h-.95v-19.67h.95zm0-29.5h-.95v-19.67h.95zm0-29.5h-.95V1212h.95zm0-29.5h-.95v-19.68h.95zm0-29.52h-.95V1153h.95zm0-29.5h-.95v-13.82h.95zm-8.93-48.3l.05.65.15.6.24.6.32.52.4.48.5.4.52.33.58.24.6.15.67.05.73.06.76.18.7.3.67.4.58.5.5.6.4.66.3.7.2.77.05.75v3.94h-.95v-3.9l-.05-.64-.15-.6-.24-.6-.32-.53-.4-.48-.5-.4-.52-.33-.58-.25-.6-.15-.67-.05-.73-.06-.76-.2-.7-.3-.67-.4-.6-.5-.5-.6-.4-.65-.3-.7-.2-.77-.05-.75v-4.13h.95zm0-25.68h-.95v-13.63h.95zm0-40h-.95v-3.13h.95zm0-12.97h-.95v-19.67h.95zm0-29.5h-.95v-19.67h.95zm0-29.5h-.95v-19.68h.95zm0-29.5h-.95v-19.68h.95zm0-29.5h-.95v-19.68h.95zm0-29.52h-.95v-19.66h.95zm0-29.5h-.95v-19.66h.95zm0-29.5h-.95v-19.67h.95zm0-29.5h-.95v-19.67h.95zm0-29.5h-.95v-19.67h.95zm0-29.5h-.95V701.5h.95zm0-29.5h-.95v-9.85h.95z" stroke="#333" stroke-width=".05" fill="#333"/><path d="M2016.7 681.87h-.95v-.52h.95z" fill="#333"/><path stroke="#333" stroke-width=".05" fill="#333"/><path d="M2025.63 1517.4h-.95v-.52h.95z" stroke="#333" stroke-width=".05" fill="#333"/><path d="M2005.15 831.75a8 8 0 0 1 8-8h24a8 8 0 0 1 8 8V1532a8 8 0 0 1-8 8h-24a8 8 0 0 1-8-8z" stroke="#f2f2f2" fill="#ced4db"/><path d="M2375.18 680.85v10m0 9.97v19.97m0 9.97v19.97m0 10v19.95m0 9.98v19.96m0 10v19.96m0 9.98v19.97m0 9.98v19.97m0 9.98v19.97m0 9.98v19.97m0 10v19.95m0 10v19.96m0 10v19.96m0 9.98v19.97m0 10v19.96m0 9.98v19.97m0 10v19.96m0 10V1200m0 9.98v19.97m0 9.98v19.97m0 9.98v19.97m0 10v19.95m0 10v19.95m0 10v19.96m0 9.98v19.98m0 9.98v19.97m0 9.98v19.98m0 9.98v19.97m0 10v9.97" stroke="#333" fill="none"/><path d="M2375.66 680.87h-.95v-.52h.96z" stroke="#333" stroke-width=".05" fill="#333"/><path d="M2375.18 1519.5v.5" stroke="#333" fill="none"/><path d="M1645.4 772.08a8 8 0 0 1 8-8h24a8 8 0 0 1 8 8V1532a8 8 0 0 1-8 8h-24a8 8 0 0 1-8-8z" stroke="#f2f2f2" fill="#ced4db"/><path d="M1932.45 582.35a8 8 0 0 1 8-8H2092a8 8 0 0 1 8 8v91a8 8 0 0 1-8 8h-151.55a8 8 0 0 1-8-8z" stroke="#000" stroke-opacity="0" fill="#6db1ff"/><use xlink:href="#a" transform="matrix(1,0,0,1,1940.4497704543683,582.354084166916) translate(44.419753086419746 38.388888888888886)"/><use xlink:href="#b" transform="matrix(1,0,0,1,1940.4497704543683,582.354084166916) translate(24.19753086419753 59.72222222222222)"/><path d="M2290.95 582.35a8 8 0 0 1 8-8h152.47a8 8 0 0 1 8 8v90a8 8 0 0 1-8 8h-152.47a8 8 0 0 1-8-8z" stroke="#000" stroke-opacity="0" fill="#6db1ff"/><use xlink:href="#c" transform="matrix(1,0,0,1,2298.9511705283003,582.354084166916) translate(37.01851851851851 48.55555555555555)"/><use xlink:href="#d" transform="matrix(1,0,0,1,2298.9511705283003,582.354084166916) translate(73.56172839506172 48.55555555555555)"/><path d="M1353.2 850.02H1628.5M1353.2 850.02h-.5" stroke="#333" fill="none"/><path d="M1643.28 850.02l-14.27 4.63v-9.26z" stroke="#333" fill="#333"/><use xlink:href="#e" transform="matrix(1,0,0,1,1376.7432100969902,854.0197689468349) translate(0.0049999999999954525 14.222222222222223)"/><use xlink:href="#f" transform="matrix(1,0,0,1,1376.7432100969902,854.0197689468349) translate(50.8691975308642 14.222222222222223)"/><use xlink:href="#g" transform="matrix(1,0,0,1,1376.7432100969902,854.0197689468349) translate(174.07907407407407 14.222222222222223)"/><path d="M1686.4 936.07h301.88" stroke="#333" fill="none"/><path d="M1686.4 936.54h-.5v-.95h.5z" stroke="#333" stroke-width=".05" fill="#333"/><path d="M2003.04 936.07l-14.27 4.63v-9.27z" stroke="#333" fill="#333"/><use xlink:href="#h" transform="matrix(1,0,0,1,1782.1634179056052,940.0669738145469) translate(0.005000000000002558 14.222222222222223)"/><use xlink:href="#i" transform="matrix(1,0,0,1,1782.1634179056052,940.0669738145469) translate(58.177839506172845 14.222222222222223)"/><path d="M1569.28 582.35a8 8 0 0 1 8-8h153.9a8 8 0 0 1 8 8v91a8 8 0 0 1-8 8h-153.9a8 8 0 0 1-8-8z" stroke="#000" stroke-opacity="0" fill="#6db1ff"/><use xlink:href="#j" transform="matrix(1,0,0,1,1577.2831738718605,582.354084166916) translate(52.82716049382716 38.388888888888886)"/><use xlink:href="#k" transform="matrix(1,0,0,1,1577.2831738718605,582.354084166916) translate(-2.8765432098765444 59.72222222222222)"/><path d="M1260 582.35a8 8 0 0 1 8-8h144a8 8 0 0 1 8 8v85a8 8 0 0 1-8 8h-144a8 8 0 0 1-8-8z" stroke="#000" stroke-opacity="0" fill="#6db1ff"/><use xlink:href="#l" transform="matrix(1,0,0,1,1268,582.354084166916) translate(53.28395061728395 46.05555555555556)"/><path d="M2581.6 582.55a8 8 0 0 1 8-8h152.47a8 8 0 0 1 8 8v91a8 8 0 0 1-8 8H2589.6a8 8 0 0 1-8-8z" stroke="#000" stroke-opacity="0" fill="#6db1ff"/><use xlink:href="#m" transform="matrix(1,0,0,1,2589.6095681617403,582.5474742071174) translate(18.30246913580247 49.05555555555555)"/><use xlink:href="#n" transform="matrix(1,0,0,1,2589.6095681617403,582.5474742071174) translate(74.54938271604938 49.05555555555555)"/><path d="M2890.25 580.55a8 8 0 0 1 8-8h143.82a8 8 0 0 1 8 8v91a8 8 0 0 1-8 8h-143.82a8 8 0 0 1-8-8z" stroke="#000" stroke-opacity="0" fill="#6db1ff"/><use xlink:href="#o" transform="matrix(1,0,0,1,2898.2536073513743,580.5474742071174) translate(32.04938271604938 49.05555555555555)"/><path d="M3190.25 582.35a8 8 0 0 1 8-8h143.82a8 8 0 0 1 8 8v85a8 8 0 0 1-8 8h-143.82a8 8 0 0 1-8-8z" stroke="#000" stroke-opacity="0" fill="#6db1ff"/><use xlink:href="#p" transform="matrix(1,0,0,1,3198.2536073513743,582.354084166916) translate(23.679012345679006 46.05555555555556)"/><use xlink:href="#q" transform="matrix(1,0,0,1,3198.2536073513743,582.354084166916) translate(82.8395061728395 46.05555555555556)"/><path d="M3500 582.55a8 8 0 0 1 8-8h164a8 8 0 0 1 8 8v85a8 8 0 0 1-8 8h-164a8 8 0 0 1-8-8z" stroke="#000" stroke-opacity="0" fill="#6db1ff"/><use xlink:href="#r" transform="matrix(1,0,0,1,3508,582.5474742071174) translate(6.42592592592591 46.05555555555556)"/><use xlink:href="#s" transform="matrix(1,0,0,1,3508,582.5474742071174) translate(58.969135802469125 46.05555555555556)"/><path d="M2667.4 686.7v9.92m0 9.92v19.84m0 9.92v19.85m0 9.92v19.84m0 9.93v19.84m0 9.93v19.84m0 9.92v19.84m0 9.93v19.84m0 9.92v19.83m0 9.92v19.85m0 9.92v19.84m0 9.92v19.85m0 9.92v19.84m0 9.9v19.86m0 9.92v19.84m0 9.92v19.85m0 9.9v19.85m0 9.92v19.85m0 9.92v19.84m0 9.92v19.85m0 9.92v19.84m0 9.93v19.84m0 9.93v19.84m0 9.92v19.84m0 9.92v19.85m0 9.92v19.83m0 9.92v19.85m0 9.92v9.92M2667.4 686.7v-.5M2667.4 1490.33v.5M2975.87 698.87v9.92m0 9.9v19.86m0 9.92v19.84m0 9.92v19.85m0 9.9v19.85m0 9.92v19.85m0 9.92v19.84m0 9.92v19.85m0 9.92v19.84m0 9.93v19.84m0 9.93v19.84m0 9.92v19.84m0 9.92v19.85m0 9.92v19.83m0 9.92v19.85m0 9.92v19.84m0 9.92v19.85m0 9.92v19.84m0 9.9v19.86m0 9.92v19.84m0 9.92v19.85m0 9.9v19.85m0 9.92v19.85m0 9.92v19.84m0 9.92v19.84m0 9.93v19.84m0 9.93v19.84m0 9.92v9.92M2975.87 698.88v-.5M2975.87 1502.5v.52M3288.4 680.6v9.93m0 9.92v19.84m0 9.9v19.86m0 9.92v19.84m0 9.92v19.85m0 9.9v19.85m0 9.92v19.85m0 9.92v19.84m0 9.92v19.85m0 9.92v19.84m0 9.93v19.84m0 9.93v19.84m0 9.92v19.84m0 9.93v19.84m0 9.92v19.83m0 9.92V1137m0 9.92v19.84m0 9.92v19.85m0 9.92v19.84m0 9.9v19.86m0 9.92v19.84m0 9.92v19.85m0 9.9v19.85m0 9.92v19.85m0 9.92v19.84m0 9.92v19.85m0 9.92v19.84m0 9.93v9.92M3288.4 680.62v-.5M3288.4 1484.24v.5M3591.77 676.05v9.98m0 9.98v19.97m0 9.97v19.96m0 9.98v19.96m0 9.98v19.96m0 9.98v19.96m0 9.98v19.96m0 9.98v19.95m0 9.97v19.96m0 9.98v19.97m0 9.98v19.96m0 10v19.95m0 9.98v19.96m0 9.96v9.98l-.03.4-.1.4-.15.35-.2.33-.27.3-.3.26-.34.2-.38.15-.38.1-.4.02-.4.04-.38.1-.37.15-.35.2-.3.27-.26.3-.2.34-.17.36-.1.4-.02.38v9.98m0 9.98v19.96m0 9.98v19.96m0 9.98v19.96m0 9.98v19.96m0 9.98v19.95m0 9.98v19.96m0 10v19.95m0 9.98v19.96m0 9.97v19.96m0 9.98v19.96m0 9.98v19.96m0 9.98v19.96m0 9.98v9.98" stroke="#333" fill="none"/><path d="M3592.24 676.06h-.94v-.5h.94z" stroke="#333" stroke-width=".05" fill="#333"/><path d="M3586.7 1459.5v.5" stroke="#333" fill="none"/><path d="M1320 772.08a8 8 0 0 1 8-8h24a8 8 0 0 1 8 8V1532a8 8 0 0 1-8 8h-24a8 8 0 0 1-8-8z" stroke="#f2f2f2" fill="#ced4db"/><path d="M1380 888a8 8 0 0 1 8-8h224a8 8 0 0 1 8 8v24a8 8 0 0 1-8 8h-224a8 8 0 0 1-8-8z" fill="#fff" fill-opacity="0"/><use xlink:href="#t" transform="matrix(1,0,0,1,1385,885) translate(35.19753086419752 14.222222222222223)"/><use xlink:href="#u" transform="matrix(1,0,0,1,1385,885) translate(75.59259259259258 14.222222222222223)"/><use xlink:href="#v" transform="matrix(1,0,0,1,1385,885) translate(132.7283950617284 14.222222222222223)"/><path d="M2004.15 980h-10.6m-10.58 0h-21.18m-10.6 0H1930m-10.58 0h-21.2m-10.58 0h-21.18m-10.6 0H1835.75m-9.53 0h-19.06m-9.53 0h-19.06m-9.53 0h-19.06m-9.53 0h-19.06m-9.53 0h-9.52" stroke="#333" fill="none"/><path d="M2004.65 980.48h-.5v-.96h.5z" stroke="#333" stroke-width=".05" fill="#333"/><path d="M1687.5 980l14.28-4.63v9.26z" stroke="#333" fill="#333"/><path d="M1740 988a8 8 0 0 1 8-8h184a8 8 0 0 1 8 8v24a8 8 0 0 1-8 8h-184a8 8 0 0 1-8-8z" fill="#fff" fill-opacity="0"/><use xlink:href="#w" transform="matrix(1,0,0,1,1745,985) translate(17.09876543209876 14.222222222222223)"/><use xlink:href="#x" transform="matrix(1,0,0,1,1745,985) translate(22.03703703703703 14.222222222222223)"/><use xlink:href="#y" transform="matrix(1,0,0,1,1745,985) translate(95.02469135802471 14.222222222222223)"/><path d="M1923.5 1040.47h-237.1v-.94h237.1zm414.8 0h-221.24v-.94h221.24z" stroke="#333" stroke-width=".05" fill="#333"/><path d="M1686.4 1040.47h-.5v-.94h.5z" fill="#333"/><path stroke="#333" stroke-width=".05" fill="#333"/><path d="M2353.07 1040l-14.27 4.63v-9.27z" fill="#333"/><path d="M2354.6 1040l-16.28 5.3v-10.6zm-15.33 3.98l12.26-3.98-12.26-3.98z" stroke="#333" stroke-width=".05" fill="#333"/><use xlink:href="#z" transform="matrix(1,0,0,1,1923.5141511438883,1029.200018437932) translate(0.0049999999999954525 14.4)"/><use xlink:href="#A" transform="matrix(1,0,0,1,1923.5141511438883,1029.200018437932) translate(75.905 14.4)"/><use xlink:href="#B" transform="matrix(1,0,0,1,1923.5141511438883,1029.200018437932) translate(154.65500000000003 14.4)"/><path d="M1882.45 1080.47H1686.4v-.94h196.05zm455.85 0h-234.2v-.94h234.2z" stroke="#333" stroke-width=".05" fill="#333"/><path d="M1686.4 1080.47h-.5v-.94h.5z" fill="#333"/><path stroke="#333" stroke-width=".05" fill="#333"/><path d="M2353.07 1080l-14.27 4.63v-9.27z" fill="#333"/><path d="M2354.6 1080l-16.28 5.3v-10.6zm-15.33 3.98l12.26-3.98-12.26-3.98z" stroke="#333" stroke-width=".05" fill="#333"/><use xlink:href="#C" transform="matrix(1,0,0,1,1882.4479301672854,1069.200013625394) translate(0.0049999999999954525 14.4)"/><use xlink:href="#D" transform="matrix(1,0,0,1,1882.4479301672854,1069.200013625394) translate(74.955 14.4)"/><use xlink:href="#E" transform="matrix(1,0,0,1,1882.4479301672854,1069.200013625394) translate(150.85500000000002 14.4)"/><path d="M1980.8 1119.03h-19.9v-.95h19.9zm-29.84 0h-19.9v-.95h19.9zm-29.84 0h-19.9v-.95h19.9zm-29.84 0h-19.9v-.95h19.9zm-29.84 0h-19.9v-.95h19.9zm-29.85 0h-19.9v-.95h19.9zm-29.85 0h-19.9v-.95h19.9zm-29.84 0h-19.88v-.95h19.9zm-29.83 0h-19.9v-.95h19.9zm-29.84 0h-9.95v-.95h9.95zm662.45 0h-10.42v-.95h10.42zm-20.85 0h-20.86v-.95h20.86zm-31.3 0h-20.85v-.95h20.86zm-31.28 0h-20.85v-.95h20.86zm-31.28 0h-20.86v-.95h20.87zm-31.3 0h-20.84v-.95h20.85zm-31.27 0h-20.86v-.95h20.86zm-31.3 0h-20.85v-.95h20.86zm-31.28 0h-20.85v-.95h20.86zm-31.28 0h-20.86v-.95h20.86z" stroke="#333" stroke-width=".05" fill="#333"/><path d="M2375.18 1119.03h-.5v-.95h.5z" stroke="#333" stroke-width=".05" fill="#333"/><path d="M1701.78 1123.2l-14.27-4.64 14.28-4.64z" fill="#333"/><path d="M1702.25 1123.85l-16.27-5.3 16.27-5.28zm-13.2-5.3l12.25 4v-7.97z" stroke="#333" stroke-width=".05" fill="#333"/><use xlink:href="#F" transform="matrix(1,0,0,1,1988.6141402907044,1107.7589919998002) translate(0.005000000000002558 14.4)"/><use xlink:href="#G" transform="matrix(1,0,0,1,1988.6141402907044,1107.7589919998002) translate(44.955000000000005 14.4)"/><path d="M2355.18 808a8 8 0 0 1 8-8h24a8 8 0 0 1 8 8v724a8 8 0 0 1-8 8h-24a8 8 0 0 1-8-8zM2645.84 788a8 8 0 0 1 8-8h24a8 8 0 0 1 8 8v744a8 8 0 0 1-8 8h-24a8 8 0 0 1-8-8zM2960 788a8 8 0 0 1 8-8h24a8 8 0 0 1 8 8v744a8 8 0 0 1-8 8h-24a8 8 0 0 1-8-8zM3250.16 788a8 8 0 0 1 8-8h24a8 8 0 0 1 8 8v744a8 8 0 0 1-8 8h-24a8 8 0 0 1-8-8zM3565.04 772.08a8 8 0 0 1 8-8h24a8 8 0 0 1 8 8V1532a8 8 0 0 1-8 8h-24a8 8 0 0 1-8-8z" stroke="#f2f2f2" fill="#ced4db"/><path d="M3233.28 1160.47h-837.1v-.94h837.1z" stroke="#333" stroke-width=".05" fill="#333"/><path d="M2396.2 1160.47h-.52v-.94h.52z" fill="#333"/><path stroke="#333" stroke-width=".05" fill="#333"/><path d="M3248.05 1160l-14.27 4.63v-9.27z" fill="#333"/><path d="M3249.58 1160l-16.28 5.3v-10.6zm-15.32 3.98l12.25-3.98-12.24-3.98z" stroke="#333" stroke-width=".05" fill="#333"/><use xlink:href="#H" transform="matrix(1,0,0,1,2748.205077636243,1164.000003371297) translate(0.0049999999999954525 14.222222222222223)"/><use xlink:href="#I" transform="matrix(1,0,0,1,2748.205077636243,1164.000003371297) translate(52.202530864197534 14.222222222222223)"/><use xlink:href="#J" transform="matrix(1,0,0,1,2748.205077636243,1164.000003371297) translate(105.48648148148149 14.222222222222223)"/><path d="M3249.16 1194.75H3239v-.95h10.16zm-20.3 0h-20.3v-.95h20.3zm-30.47 0h-20.32v-.95h20.3zm-30.47 0h-20.3v-.95h20.3zm-30.46 0h-20.3v-.95h20.3zm-30.47 0h-20.3v-.95h20.3zm-30.46 0h-20.3v-.95h20.3zm-30.47 0h-20.3v-.95h20.3zm-30.46 0h-20.3v-.95h20.3zm-30.45 0h-20.3v-.95h20.3zm-30.47 0h-20.3v-.95h20.3zm-30.46 0h-13.25v-.95h13.25zm-189.85 0h-9.46v-.95h9.47zm-19.23 0h-19.56v-.95h19.56zm-29.33 0h-19.55v-.95h19.56zm-29.32 0h-19.56v-.95h19.56zm-29.33 0h-19.56v-.95h19.55zm-29.33 0h-19.55v-.95h19.55zm-29.33 0h-19.56v-.95h19.55zm-29.34 0h-19.55v-.95h19.56zm-29.33 0h-19.55v-.95h19.55zm-29.33 0h-19.55v-.95h19.55zm-29.33 0h-19.55v-.95h19.55zm-29.33 0h-9.77v-.95h9.77z" stroke="#333" stroke-width=".05" fill="#333"/><path d="M3249.66 1194.75h-.5v-.95h.5z" fill="#333"/><path stroke="#333" stroke-width=".05" fill="#333"/><path d="M2411.57 1198.9l-14.27-4.63 14.27-4.63z" fill="#333"/><path d="M2412.04 1199.56l-16.27-5.3 16.27-5.28zm-13.2-5.3l12.25 4v-7.97z" stroke="#333" stroke-width=".05" fill="#333"/><use xlink:href="#K" transform="matrix(1,0,0,1,2734.3742181057496,1183.4705390757704) translate(0.0049999999999954525 14.4)"/><use xlink:href="#L" transform="matrix(1,0,0,1,2734.3742181057496,1183.4705390757704) translate(62.805 14.4)"/><use xlink:href="#M" transform="matrix(1,0,0,1,2734.3742181057496,1183.4705390757704) translate(132.60500000000002 14.4)"/><path d="M2396.18 1241.28h232.79" stroke="#333" fill="none"/><path d="M2396.2 1241.76h-.52v-.95h.52z" stroke="#333" stroke-width=".05" fill="#333"/><path d="M2643.72 1241.28l-14.26 4.64v-9.27z" stroke="#333" fill="#333"/><use xlink:href="#N" transform="matrix(1,0,0,1,2451.599550400319,1245.2814448348295) translate(0.0049999999999954525 14.222222222222223)"/><use xlink:href="#O" transform="matrix(1,0,0,1,2451.599550400319,1245.2814448348295) translate(64.99265432098765 14.222222222222223)"/><path d="M2686.84 1292.6H2943.12" stroke="#333" fill="none"/><path d="M2686.86 1293.07h-.52v-.95h.5z" stroke="#333" stroke-width=".05" fill="#333"/><path d="M2957.88 1292.6l-14.27 4.63v-9.27z" stroke="#333" fill="#333"/><use xlink:href="#P" transform="matrix(1,0,0,1,2726.3533159519093,1296.5921486373811) translate(0.0049999999999954525 14.222222222222223)"/><use xlink:href="#Q" transform="matrix(1,0,0,1,2726.3533159519093,1296.5921486373811) translate(50.2766049382716 14.222222222222223)"/><use xlink:href="#R" transform="matrix(1,0,0,1,2726.3533159519093,1296.5921486373811) translate(154.72104938271605 14.222222222222223)"/><path d="M2959 1322.7h-9.07m-9.07 0h-18.15m-9.06 0h-18.14m-9.07 0h-18.15m-9.07 0h-18.13m-9.08 0h-19.08m-10.03 0h-20.04m-10.02 0h-20.03m-10 0h-20.04m-10.02 0h-10" stroke="#333" fill="none"/><path d="M2959.5 1323.17h-.5v-.95h.5z" stroke="#333" stroke-width=".05" fill="#333"/><path d="M2687.96 1322.7l14.27-4.64v9.27z" stroke="#333" fill="#333"/><use xlink:href="#S" transform="matrix(1,0,0,1,2772.546218280275,1326.6906032900974) translate(0.005000000000002558 14.4)"/><use xlink:href="#T" transform="matrix(1,0,0,1,2772.546218280275,1326.6906032900974) translate(43.90500000000001 14.4)"/><path d="M1686.4 1358.78h1861.75" stroke="#333" fill="none"/><path d="M1686.4 1359.25h-.5v-.95h.5z" stroke="#333" stroke-width=".05" fill="#333"/><path d="M3562.92 1358.78l-14.27 4.63v-9.26z" stroke="#333" fill="#333"/><g><use xlink:href="#U" transform="matrix(1,0,0,1,2514.05550457566,1362.7790361791758) translate(0.0049999999999954525 14.222222222222223)"/><use xlink:href="#V" transform="matrix(1,0,0,1,2514.05550457566,1362.7790361791758) translate(81.88154320987655 14.222222222222223)"/><use xlink:href="#W" transform="matrix(1,0,0,1,2514.05550457566,1362.7790361791758) translate(135.65932098765433 14.222222222222223)"/></g><path d="M3860 585.35a8 8 0 0 1 8-8h144a8 8 0 0 1 8 8v83a8 8 0 0 1-8 8h-144a8 8 0 0 1-8-8z" stroke="#000" stroke-opacity="0" fill="#6db1ff"/><g><use xlink:href="#X" transform="matrix(1,0,0,1,3868,585.354084166916) translate(5.925925925925924 45.05555555555556)"/><use xlink:href="#Y" transform="matrix(1,0,0,1,3868,585.354084166916) translate(82.81481481481481 45.05555555555556)"/></g><path d="M3948.77 676.85v10.17m0 10.17v20.33m0 10.17v20.33m0 10.17v20.34m0 10.17v20.35m0 10.17v20.33m0 10.17v20.34m0 10.17v20.33m0 10.17v20.34m0 10.17v20.34m0 10.16v20.34m0 10.17v20.34m0 10.16v20.33m0 10.16v20.34m0 10.17v20.33m0 10.17v20.34m0 10.18v20.34m0 10.17v20.32m0 10.17v20.33m0 10.17v20.33m0 10.17v20.34m0 10.17v20.35m0 10.16v20.35m0 10.17v20.34m0 10.17v20.33m0 10.17v10.17" stroke="#333" fill="none"/><path d="M3949.24 676.87h-.94v-.52h.94z" stroke="#333" stroke-width=".05" fill="#333"/><path d="M3948.77 1439.5v.5" stroke="#333" fill="none"/><path d="M3940 788a8 8 0 0 1 8-8h24a8 8 0 0 1 8 8v744a8 8 0 0 1-8 8h-24a8 8 0 0 1-8-8z" stroke="#f2f2f2" fill="#ced4db"/><path d="M3606.04 1381.7h317.08" stroke="#333" fill="none"/><path d="M3606.05 1382.17h-.5v-.95h.5z" stroke="#333" stroke-width=".05" fill="#333"/><path d="M3937.88 1381.7l-14.26 4.63v-9.26z" stroke="#333" fill="#333"/><g><use xlink:href="#Z" transform="matrix(1,0,0,1,3715.0867327146357,1385.6997653947594) translate(0.005000000000002558 14.222222222222223)"/></g><path d="M3939 1412.85h-9.25m-9.25 0H3902m-9.24 0h-18.5m-9.25 0h-18.5m-9.24 0h-18.5m-9.25 0h-18.48m-9.25 0h-19.29m-10.04 0h-20.08m-10.04 0h-20.08m-10.04 0h-20.08m-10.04 0H3642m-10.04 0h-10.04" stroke="#333" fill="none"/><path d="M3939.5 1413.32h-.5v-.95h.5z" stroke="#333" stroke-width=".05" fill="#333"/><path d="M3607.16 1412.85l14.26-4.64v9.28z" stroke="#333" fill="#333"/><g><use xlink:href="#aa" transform="matrix(1,0,0,1,3713.1472736349556,1416.848313603482) translate(0.0049999999999954525 14.4)"/><use xlink:href="#ab" transform="matrix(1,0,0,1,3713.1472736349556,1416.848313603482) translate(54.455 14.4)"/></g><path d="M3564.04 1438.67h-10.1m-10.1 0h-20.18m-10.1 0h-20.2m-10.08 0h-20.2m-10.1 0h-20.18m-10.1 0h-20.18m-10.1 0h-20.18m-10.1 0h-20.2m-10.08 0h-20.2m-10.1 0h-20.18m-10.1 0h-20.18m-10.1 0h-20.2m-10.08 0h-20.2m-10.1 0h-20.18m-10.1 0h-20.18m-10.1 0h-20.2m-10.08 0h-20.2m-10.1 0h-20.18m-10.1 0h-20.18m-10.1 0h-20.18m-10.1 0h-20.2m-10.08 0h-20.2m-10.1 0h-20.18m-10.1 0h-20.18m-10.1 0h-20.2m-10.08 0h-20.2m-10.1 0h-20.18m-10.1 0h-20.18m-10.1 0H2706m-10.1 0h-20.2m-10.08 0h-20.2m-10.1 0H2615.3m-9.93 0h-19.85m-9.92 0h-19.85m-9.93 0h-19.85m-9.92 0h-19.85m-9.92 0h-19.85m-9.92 0h-19.84m-9.92 0h-19.85m-9.94 0h-19.85m-9.9 0h-19.86m-9.92 0h-19.85m-9.92 0h-19.85m-9.93 0h-19.84m-9.93 0h-19.85m-9.92 0h-19.85m-9.92 0h-19.85m-9.9 0h-19.86m-9.93 0h-19.84m-9.92 0h-19.85m-9.93 0h-19.85m-9.92 0h-19.85m-9.92 0h-19.85m-9.93 0h-19.85m-9.92 0h-19.85m-9.92 0h-19.84m-9.92 0H1871m-9.94 0h-19.84m-9.93 0h-19.86m-9.92 0h-19.85m-9.92 0h-19.85m-9.93 0h-19.84m-9.93 0h-9.92" stroke="#333" fill="none"/><path d="M3564.54 1439.15h-.5v-.95h.5z" stroke="#333" stroke-width=".05" fill="#333"/><path d="M1687.5 1438.67l14.28-4.63v9.27z" stroke="#333" fill="#333"/><g><use xlink:href="#K" transform="matrix(1,0,0,1,2611.8186876772265,1442.672529840589) translate(0.0049999999999954525 14.4)"/><use xlink:href="#ac" transform="matrix(1,0,0,1,2611.8186876772265,1442.672529840589) translate(62.805 14.4)"/><use xlink:href="#ad" transform="matrix(1,0,0,1,2611.8186876772265,1442.672529840589) translate(117.255 14.4)"/></g><path d="M1663.4 1473.64h-10.08m-10.08 0h-20.16m-10.08 0h-20.16m-10.08 0h-20.16m-10.08 0h-20.16m-10.08 0h-19.1m-9.02 0h-18.04m-9.02 0h-18.05m-9.02 0H1422m-9.03 0h-18.04m-9.02 0h-9.02M1663.4 1473.64h.5" stroke="#333" fill="none"/><path d="M1362.12 1473.64l14.27-4.64-.02 9.27z" stroke="#333" fill="#333"/><path d="M1380 1488a8 8 0 0 1 8-8h224a8 8 0 0 1 8 8v44a8 8 0 0 1-8 8h-224a8 8 0 0 1-8-8z" fill="none"/><g><use xlink:href="#ae" transform="matrix(1,0,0,1,1380,1480) translate(13.16049382716048 33.55555555555556)"/><use xlink:href="#af" transform="matrix(1,0,0,1,1380,1480) translate(88.96296296296296 33.55555555555556)"/><use xlink:href="#ag" transform="matrix(1,0,0,1,1380,1480) translate(165.7037037037037 33.55555555555556)"/></g><defs><path d="M185-189c-5-48-123-54-124 2 14 75 158 14 163 119 3 78-121 87-175 55-17-10-28-26-33-46l33-7c5 56 141 63 141-1 0-78-155-14-162-118-5-82 145-84 179-34 5 7 8 16 11 25" id="ah"/><path d="M100-194c63 0 86 42 84 106H49c0 40 14 67 53 68 26 1 43-12 49-29l28 8c-11 28-37 45-77 45C44 4 14-33 15-96c1-61 26-98 85-98zm52 81c6-60-76-77-97-28-3 7-6 17-6 28h103" id="ai"/><path d="M135-143c-3-34-86-38-87 0 15 53 115 12 119 90S17 21 10-45l28-5c4 36 97 45 98 0-10-56-113-15-118-90-4-57 82-63 122-42 12 7 21 19 24 35" id="aj"/><path d="M24-231v-30h32v30H24zM24 0v-190h32V0H24" id="ak"/><path d="M100-194c62-1 85 37 85 99 1 63-27 99-86 99S16-35 15-95c0-66 28-99 85-99zM99-20c44 1 53-31 53-75 0-43-8-75-51-75s-53 32-53 75 10 74 51 75" id="al"/><path d="M117-194c89-4 53 116 60 194h-32v-121c0-31-8-49-39-48C34-167 62-67 57 0H25l-1-190h30c1 10-1 24 2 32 11-22 29-35 61-36" id="am"/><g id="a"><use transform="matrix(0.04938271604938272,0,0,0.04938271604938272,0,0)" xlink:href="#ah"/><use transform="matrix(0.04938271604938272,0,0,0.04938271604938272,11.851851851851853,0)" xlink:href="#ai"/><use transform="matrix(0.04938271604938272,0,0,0.04938271604938272,21.7283950617284,0)" xlink:href="#aj"/><use transform="matrix(0.04938271604938272,0,0,0.04938271604938272,30.617283950617285,0)" xlink:href="#aj"/><use transform="matrix(0.04938271604938272,0,0,0.04938271604938272,39.50617283950618,0)" xlink:href="#ak"/><use transform="matrix(0.04938271604938272,0,0,0.04938271604938272,43.40740740740741,0)" xlink:href="#al"/><use transform="matrix(0.04938271604938272,0,0,0.04938271604938272,53.283950617283956,0)" xlink:href="#am"/></g><path d="M240 0l2-218c-23 76-54 145-80 218h-23L58-218 59 0H30v-248h44l77 211c21-75 51-140 76-211h43V0h-30" id="an"/><path d="M141-36C126-15 110 5 73 4 37 3 15-17 15-53c-1-64 63-63 125-63 3-35-9-54-41-54-24 1-41 7-42 31l-33-3c5-37 33-52 76-52 45 0 72 20 72 64v82c-1 20 7 32 28 27v20c-31 9-61-2-59-35zM48-53c0 20 12 33 32 33 41-3 63-29 60-74-43 2-92-5-92 41" id="ao"/><path d="M177-190C167-65 218 103 67 71c-23-6-38-20-44-43l32-5c15 47 100 32 89-28v-30C133-14 115 1 83 1 29 1 15-40 15-95c0-56 16-97 71-98 29-1 48 16 59 35 1-10 0-23 2-32h30zM94-22c36 0 50-32 50-73 0-42-14-75-50-75-39 0-46 34-46 75s6 73 46 73" id="ap"/><path d="M210-169c-67 3-38 105-44 169h-31v-121c0-29-5-50-35-48C34-165 62-65 56 0H25l-1-190h30c1 10-1 24 2 32 10-44 99-50 107 0 11-21 27-35 58-36 85-2 47 119 55 194h-31v-121c0-29-5-49-35-48" id="aq"/><path d="M59-47c-2 24 18 29 38 22v24C64 9 27 4 27-40v-127H5v-23h24l9-43h21v43h35v23H59v120" id="ar"/><g id="b"><use transform="matrix(0.04938271604938272,0,0,0.04938271604938272,0,0)" xlink:href="#an"/><use transform="matrix(0.04938271604938272,0,0,0.04938271604938272,14.765432098765434,0)" xlink:href="#ao"/><use transform="matrix(0.04938271604938272,0,0,0.04938271604938272,24.641975308641978,0)" xlink:href="#am"/><use transform="matrix(0.04938271604938272,0,0,0.04938271604938272,34.51851851851852,0)" xlink:href="#ao"/><use transform="matrix(0.04938271604938272,0,0,0.04938271604938272,44.39506172839506,0)" xlink:href="#ap"/><use transform="matrix(0.04938271604938272,0,0,0.04938271604938272,54.27160493827161,0)" xlink:href="#ai"/><use transform="matrix(0.04938271604938272,0,0,0.04938271604938272,64.14814814814815,0)" xlink:href="#aq"/><use transform="matrix(0.04938271604938272,0,0,0.04938271604938272,78.91358024691358,0)" xlink:href="#ai"/><use transform="matrix(0.04938271604938272,0,0,0.04938271604938272,88.79012345679013,0)" xlink:href="#am"/><use transform="matrix(0.04938271604938272,0,0,0.04938271604938272,98.66666666666667,0)" xlink:href="#ar"/></g><path d="M205 0l-28-72H64L36 0H1l101-248h38L239 0h-34zm-38-99l-47-123c-12 45-31 82-46 123h93" id="as"/><path d="M115-194c55 1 70 41 70 98S169 2 115 4C84 4 66-9 55-30l1 105H24l-1-265h31l2 30c10-21 28-34 59-34zm-8 174c40 0 45-34 45-75s-6-73-45-74c-42 0-51 32-51 76 0 43 10 73 51 73" id="at"/><g id="c"><use transform="matrix(0.04938271604938272,0,0,0.04938271604938272,0,0)" xlink:href="#as"/><use transform="matrix(0.04938271604938272,0,0,0.04938271604938272,11.851851851851853,0)" xlink:href="#at"/><use transform="matrix(0.04938271604938272,0,0,0.04938271604938272,21.7283950617284,0)" xlink:href="#at"/></g><path d="M30 0v-248h33v221h125V0H30" id="au"/><path d="M96-169c-40 0-48 33-48 73s9 75 48 75c24 0 41-14 43-38l32 2c-6 37-31 61-74 61-59 0-76-41-82-99-10-93 101-131 147-64 4 7 5 14 7 22l-32 3c-4-21-16-35-41-35" id="av"/><g id="d"><use transform="matrix(0.04938271604938272,0,0,0.04938271604938272,0,0)" xlink:href="#au"/><use transform="matrix(0.04938271604938272,0,0,0.04938271604938272,9.876543209876544,0)" xlink:href="#al"/><use transform="matrix(0.04938271604938272,0,0,0.04938271604938272,19.75308641975309,0)" xlink:href="#ap"/><use transform="matrix(0.04938271604938272,0,0,0.04938271604938272,29.629629629629633,0)" xlink:href="#ak"/><use transform="matrix(0.04938271604938272,0,0,0.04938271604938272,33.53086419753087,0)" xlink:href="#av"/></g><path d="M186 0v-106H76V0H24v-248h52v99h110v-99h50V0h-50" id="aw"/><path d="M136-208V0H84v-208H4v-40h212v40h-80" id="ax"/><path d="M24-248c93 1 206-16 204 79-1 75-69 88-152 82V0H24v-248zm52 121c47 0 100 7 100-41 0-47-54-39-100-39v80" id="ay"/><g id="e"><use transform="matrix(0.04938271604938272,0,0,0.04938271604938272,0,0)" xlink:href="#aw"/><use transform="matrix(0.04938271604938272,0,0,0.04938271604938272,12.790123456790125,0)" xlink:href="#ax"/><use transform="matrix(0.04938271604938272,0,0,0.04938271604938272,23.60493827160494,0)" xlink:href="#ax"/><use transform="matrix(0.04938271604938272,0,0,0.04938271604938272,34.41975308641975,0)" xlink:href="#ay"/></g><path d="M135-150c-39-12-60 13-60 57V0H25l-1-190h47c2 13-1 29 3 40 6-28 27-53 61-41v41" id="az"/><path d="M185-48c-13 30-37 53-82 52C43 2 14-33 14-96s30-98 90-98c62 0 83 45 84 108H66c0 31 8 55 39 56 18 0 30-7 34-22zm-45-69c5-46-57-63-70-21-2 6-4 13-4 21h74" id="aA"/><path d="M84 4C32 4 15-41 15-95c0-55 18-99 73-99 29 0 47 12 58 34l2-30h48l-1 265h-49V-32C136-9 114 4 84 4zm21-34c32 0 41-29 41-66 0-36-9-64-40-64-33 0-39 30-40 65 0 43 13 65 39 65" id="aB"/><path d="M85 4C-2 5 27-109 22-190h50c7 57-23 150 33 157 60-5 35-97 40-157h50l1 190h-47c-2-12 1-28-3-38-12 25-28 42-61 42" id="aC"/><path d="M137-138c1-29-70-34-71-4 15 46 118 7 119 86 1 83-164 76-172 9l43-7c4 19 20 25 44 25 33 8 57-30 24-41C81-84 22-81 20-136c-2-80 154-74 161-7" id="aD"/><path d="M115-3C79 11 28 4 28-45v-112H4v-33h27l15-45h31v45h36v33H77v99c-1 23 16 31 38 25v30" id="aE"/><path d="M67-93c0 74 22 123 53 168H70C40 30 18-18 18-93s22-123 52-168h50c-32 44-53 94-53 168" id="aF"/><path d="M140-251c80 0 125 45 125 126S219 4 139 4C58 4 15-44 15-125s44-126 125-126zm-1 214c52 0 73-35 73-88 0-50-21-86-72-86-52 0-73 35-73 86s22 88 72 88" id="aG"/><path d="M169-182c-1-43-94-46-97-3 18 66 151 10 154 114 3 95-165 93-204 36-6-8-10-19-12-30l50-8c3 46 112 56 116 5-17-69-150-10-154-114-4-87 153-88 188-35 5 8 8 18 10 28" id="aH"/><g id="f"><use transform="matrix(0.04938271604938272,0,0,0.04938271604938272,0,0)" xlink:href="#az"/><use transform="matrix(0.04938271604938272,0,0,0.04938271604938272,6.913580246913581,0)" xlink:href="#aA"/><use transform="matrix(0.04938271604938272,0,0,0.04938271604938272,16.790123456790127,0)" xlink:href="#aB"/><use transform="matrix(0.04938271604938272,0,0,0.04938271604938272,27.604938271604947,0)" xlink:href="#aC"/><use transform="matrix(0.04938271604938272,0,0,0.04938271604938272,38.41975308641976,0)" xlink:href="#aA"/><use transform="matrix(0.04938271604938272,0,0,0.04938271604938272,48.296296296296305,0)" xlink:href="#aD"/><use transform="matrix(0.04938271604938272,0,0,0.04938271604938272,58.17283950617284,0)" xlink:href="#aE"/><use transform="matrix(0.04938271604938272,0,0,0.04938271604938272,64.0493827160494,0)" xlink:href="#aF"/><use transform="matrix(0.04938271604938272,0,0,0.04938271604938272,69.92592592592594,0)" xlink:href="#ay"/><use transform="matrix(0.04938271604938272,0,0,0.04938271604938272,81.77777777777779,0)" xlink:href="#aG"/><use transform="matrix(0.04938271604938272,0,0,0.04938271604938272,95.60493827160495,0)" xlink:href="#aH"/><use transform="matrix(0.04938271604938272,0,0,0.04938271604938272,107.4567901234568,0)" xlink:href="#ax"/></g><path d="M182-130c37 4 62 22 62 59C244 23 116-4 24 0v-248c84 5 203-23 205 63 0 31-19 50-47 55zM76-148c40-3 101 13 101-30 0-44-60-28-101-31v61zm0 110c48-3 116 14 116-37 0-48-69-32-116-35v72" id="aI"/><path d="M123 10C108 53 80 86 19 72V37c35 8 53-11 59-39L3-190h52l48 148c12-52 28-100 44-148h51" id="aJ"/><path d="M4 7l51-268h42L46 7H4" id="aK"/><path d="M25 0v-261h50V0H25" id="aL"/><g id="g"><use transform="matrix(0.04938271604938272,0,0,0.04938271604938272,0,0)" xlink:href="#aI"/><use transform="matrix(0.04938271604938272,0,0,0.04938271604938272,12.790123456790125,0)" xlink:href="#aC"/><use transform="matrix(0.04938271604938272,0,0,0.04938271604938272,23.60493827160494,0)" xlink:href="#aJ"/><use transform="matrix(0.04938271604938272,0,0,0.04938271604938272,33.48148148148148,0)" xlink:href="#aK"/><use transform="matrix(0.04938271604938272,0,0,0.04938271604938272,38.41975308641975,0)" xlink:href="#aH"/><use transform="matrix(0.04938271604938272,0,0,0.04938271604938272,50.27160493827161,0)" xlink:href="#aA"/><use transform="matrix(0.04938271604938272,0,0,0.04938271604938272,60.14814814814815,0)" xlink:href="#aL"/><use transform="matrix(0.04938271604938272,0,0,0.04938271604938272,65.08641975308643,0)" xlink:href="#aL"/></g><path d="M67-125c0 53 21 87 73 88 37 1 54-22 65-47l45 17C233-25 199 4 140 4 58 4 20-42 15-125 8-235 124-281 211-232c18 10 29 29 36 50l-46 12c-8-25-30-41-62-41-52 0-71 34-72 86" id="aM"/><path d="M114-157C55-157 80-60 75 0H25v-261h50l-1 109c12-26 28-41 61-42 86-1 58 113 63 194h-50c-7-57 23-157-34-157" id="aN"/><path d="M190-63c-7 42-38 67-86 67-59 0-84-38-90-98-12-110 154-137 174-36l-49 2c-2-19-15-32-35-32-30 0-35 28-38 64-6 74 65 87 74 30" id="aO"/><path d="M147 0L96-86 75-71V0H25v-261h50v150l67-79h53l-66 74L201 0h-54" id="aP"/><g id="h"><use transform="matrix(0.04938271604938272,0,0,0.04938271604938272,0,0)" xlink:href="#aM"/><use transform="matrix(0.04938271604938272,0,0,0.04938271604938272,12.790123456790125,0)" xlink:href="#aN"/><use transform="matrix(0.04938271604938272,0,0,0.04938271604938272,23.60493827160494,0)" xlink:href="#aA"/><use transform="matrix(0.04938271604938272,0,0,0.04938271604938272,33.48148148148148,0)" xlink:href="#aO"/><use transform="matrix(0.04938271604938272,0,0,0.04938271604938272,43.358024691358025,0)" xlink:href="#aP"/></g><path d="M25-224v-37h50v37H25zM25 0v-190h50V0H25" id="aQ"/><path d="M110-194c64 0 96 36 96 99 0 64-35 99-97 99-61 0-95-36-95-99 0-62 34-99 96-99zm-1 164c35 0 45-28 45-65 0-40-10-65-43-65-34 0-45 26-45 65 0 36 10 65 43 65" id="aR"/><path d="M135-194c87-1 58 113 63 194h-50c-7-57 23-157-34-157-59 0-34 97-39 157H25l-1-190h47c2 12-1 28 3 38 12-26 28-41 61-42" id="aS"/><g id="i"><use transform="matrix(0.04938271604938272,0,0,0.04938271604938272,0,0)" xlink:href="#aH"/><use transform="matrix(0.04938271604938272,0,0,0.04938271604938272,11.851851851851853,0)" xlink:href="#aA"/><use transform="matrix(0.04938271604938272,0,0,0.04938271604938272,21.7283950617284,0)" xlink:href="#aD"/><use transform="matrix(0.04938271604938272,0,0,0.04938271604938272,31.60493827160494,0)" xlink:href="#aD"/><use transform="matrix(0.04938271604938272,0,0,0.04938271604938272,41.48148148148149,0)" xlink:href="#aQ"/><use transform="matrix(0.04938271604938272,0,0,0.04938271604938272,46.41975308641976,0)" xlink:href="#aR"/><use transform="matrix(0.04938271604938272,0,0,0.04938271604938272,57.23456790123457,0)" xlink:href="#aS"/></g><path d="M143 4C61 4 22-44 18-125c-5-107 100-154 193-111 17 8 29 25 37 43l-32 9c-13-25-37-40-76-40-61 0-88 39-88 99 0 61 29 100 91 101 35 0 62-11 79-27v-45h-74v-28h105v86C228-13 192 4 143 4" id="aT"/><g id="j"><use transform="matrix(0.04938271604938272,0,0,0.04938271604938272,0,0)" xlink:href="#aT"/><use transform="matrix(0.04938271604938272,0,0,0.04938271604938272,13.827160493827162,0)" xlink:href="#ao"/><use transform="matrix(0.04938271604938272,0,0,0.04938271604938272,23.703703703703706,0)" xlink:href="#aq"/><use transform="matrix(0.04938271604938272,0,0,0.04938271604938272,38.46913580246914,0)" xlink:href="#ai"/></g><path d="M114-163C36-179 61-72 57 0H25l-1-190h30c1 12-1 29 2 39 6-27 23-49 58-41v29" id="aU"/><path d="M108 0H70L1-190h34L89-25l56-165h34" id="aV"/><path d="M87 75C49 33 22-17 22-94c0-76 28-126 65-167h31c-38 41-64 92-64 168S80 34 118 75H87" id="aW"/><path d="M30 0v-248h187v28H63v79h144v27H63v87h162V0H30" id="aX"/><path d="M141 0L90-78 38 0H4l68-98-65-92h35l48 74 47-74h35l-64 92 68 98h-35" id="aY"/><path d="M33-261c38 41 65 92 65 168S71 34 33 75H2C39 34 66-17 66-93S39-220 2-261h31" id="aZ"/><g id="k"><use transform="matrix(0.04938271604938272,0,0,0.04938271604938272,0,0)" xlink:href="#ah"/><use transform="matrix(0.04938271604938272,0,0,0.04938271604938272,11.851851851851853,0)" xlink:href="#ai"/><use transform="matrix(0.04938271604938272,0,0,0.04938271604938272,21.7283950617284,0)" xlink:href="#aU"/><use transform="matrix(0.04938271604938272,0,0,0.04938271604938272,27.604938271604947,0)" xlink:href="#aV"/><use transform="matrix(0.04938271604938272,0,0,0.04938271604938272,36.49382716049384,0)" xlink:href="#ai"/><use transform="matrix(0.04938271604938272,0,0,0.04938271604938272,46.37037037037038,0)" xlink:href="#aU"/><use transform="matrix(0.04938271604938272,0,0,0.04938271604938272,52.24691358024693,0)" xlink:href="#aW"/><use transform="matrix(0.04938271604938272,0,0,0.04938271604938272,58.12345679012347,0)" xlink:href="#aX"/><use transform="matrix(0.04938271604938272,0,0,0.04938271604938272,69.97530864197532,0)" xlink:href="#aY"/><use transform="matrix(0.04938271604938272,0,0,0.04938271604938272,78.8641975308642,0)" xlink:href="#at"/><use transform="matrix(0.04938271604938272,0,0,0.04938271604938272,88.74074074074075,0)" xlink:href="#aU"/><use transform="matrix(0.04938271604938272,0,0,0.04938271604938272,94.61728395061729,0)" xlink:href="#ai"/><use transform="matrix(0.04938271604938272,0,0,0.04938271604938272,104.49382716049384,0)" xlink:href="#aj"/><use transform="matrix(0.04938271604938272,0,0,0.04938271604938272,113.38271604938272,0)" xlink:href="#aj"/><use transform="matrix(0.04938271604938272,0,0,0.04938271604938272,122.27160493827162,0)" xlink:href="#as"/><use transform="matrix(0.04938271604938272,0,0,0.04938271604938272,134.12345679012347,0)" xlink:href="#at"/><use transform="matrix(0.04938271604938272,0,0,0.04938271604938272,144,0)" xlink:href="#at"/><use transform="matrix(0.04938271604938272,0,0,0.04938271604938272,153.87654320987656,0)" xlink:href="#aZ"/></g><path d="M232-93c-1 65-40 97-104 97C67 4 28-28 28-90v-158h33c8 89-33 224 67 224 102 0 64-133 71-224h33v155" id="ba"/><g id="l"><use transform="matrix(0.04938271604938272,0,0,0.04938271604938272,0,0)" xlink:href="#ba"/><use transform="matrix(0.04938271604938272,0,0,0.04938271604938272,12.790123456790125,0)" xlink:href="#aj"/><use transform="matrix(0.04938271604938272,0,0,0.04938271604938272,21.679012345679013,0)" xlink:href="#ai"/><use transform="matrix(0.04938271604938272,0,0,0.04938271604938272,31.555555555555557,0)" xlink:href="#aU"/></g><path d="M140-251c81 0 123 46 123 126C263-46 219 4 140 4 59 4 17-45 17-125s42-126 123-126zm0 227c63 0 89-41 89-101s-29-99-89-99c-61 0-89 39-89 99S79-25 140-24" id="bb"/><path d="M115-194c53 0 69 39 70 98 0 66-23 100-70 100C84 3 66-7 56-30L54 0H23l1-261h32v101c10-23 28-34 59-34zm-8 174c40 0 45-34 45-75 0-40-5-75-45-74-42 0-51 32-51 76 0 43 10 73 51 73" id="bc"/><path d="M24-231v-30h32v30H24zM-9 49c24 4 33-6 33-30v-209h32V24c2 40-23 58-65 49V49" id="bd"/><g id="m"><use transform="matrix(0.04938271604938272,0,0,0.04938271604938272,0,0)" xlink:href="#bb"/><use transform="matrix(0.04938271604938272,0,0,0.04938271604938272,13.827160493827162,0)" xlink:href="#bc"/><use transform="matrix(0.04938271604938272,0,0,0.04938271604938272,23.703703703703706,0)" xlink:href="#bd"/><use transform="matrix(0.04938271604938272,0,0,0.04938271604938272,27.60493827160494,0)" xlink:href="#ai"/><use transform="matrix(0.04938271604938272,0,0,0.04938271604938272,37.48148148148148,0)" xlink:href="#av"/><use transform="matrix(0.04938271604938272,0,0,0.04938271604938272,46.37037037037037,0)" xlink:href="#ar"/></g><g id="n"><use transform="matrix(0.04938271604938272,0,0,0.04938271604938272,0,0)" xlink:href="#an"/><use transform="matrix(0.04938271604938272,0,0,0.04938271604938272,14.765432098765434,0)" xlink:href="#ao"/><use transform="matrix(0.04938271604938272,0,0,0.04938271604938272,24.641975308641978,0)" xlink:href="#at"/><use transform="matrix(0.04938271604938272,0,0,0.04938271604938272,34.51851851851852,0)" xlink:href="#at"/><use transform="matrix(0.04938271604938272,0,0,0.04938271604938272,44.39506172839506,0)" xlink:href="#ai"/><use transform="matrix(0.04938271604938272,0,0,0.04938271604938272,54.27160493827161,0)" xlink:href="#aU"/></g><path d="M30-248c118-7 216 8 213 122C240-48 200 0 122 0H30v-248zM63-27c89 8 146-16 146-99s-60-101-146-95v194" id="be"/><g id="o"><use transform="matrix(0.04938271604938272,0,0,0.04938271604938272,0,0)" xlink:href="#be"/><use transform="matrix(0.04938271604938272,0,0,0.04938271604938272,12.790123456790125,0)" xlink:href="#ao"/><use transform="matrix(0.04938271604938272,0,0,0.04938271604938272,22.66666666666667,0)" xlink:href="#ar"/><use transform="matrix(0.04938271604938272,0,0,0.04938271604938272,27.604938271604947,0)" xlink:href="#ao"/><use transform="matrix(0.04938271604938272,0,0,0.04938271604938272,37.48148148148149,0)" xlink:href="#ah"/><use transform="matrix(0.04938271604938272,0,0,0.04938271604938272,49.33333333333334,0)" xlink:href="#ar"/><use transform="matrix(0.04938271604938272,0,0,0.04938271604938272,54.27160493827161,0)" xlink:href="#al"/><use transform="matrix(0.04938271604938272,0,0,0.04938271604938272,64.14814814814815,0)" xlink:href="#aU"/><use transform="matrix(0.04938271604938272,0,0,0.04938271604938272,70.0246913580247,0)" xlink:href="#ai"/></g><path d="M143 0L79-87 56-68V0H24v-261h32v163l83-92h37l-77 82L181 0h-38" id="bf"/><g id="p"><use transform="matrix(0.04938271604938272,0,0,0.04938271604938272,0,0)" xlink:href="#an"/><use transform="matrix(0.04938271604938272,0,0,0.04938271604938272,14.765432098765434,0)" xlink:href="#ao"/><use transform="matrix(0.04938271604938272,0,0,0.04938271604938272,24.641975308641978,0)" xlink:href="#aU"/><use transform="matrix(0.04938271604938272,0,0,0.04938271604938272,30.518518518518523,0)" xlink:href="#bf"/><use transform="matrix(0.04938271604938272,0,0,0.04938271604938272,39.40740740740741,0)" xlink:href="#ai"/><use transform="matrix(0.04938271604938272,0,0,0.04938271604938272,49.283950617283956,0)" xlink:href="#ar"/></g><g id="q"><use transform="matrix(0.04938271604938272,0,0,0.04938271604938272,0,0)" xlink:href="#be"/><use transform="matrix(0.04938271604938272,0,0,0.04938271604938272,12.790123456790125,0)" xlink:href="#ao"/><use transform="matrix(0.04938271604938272,0,0,0.04938271604938272,22.66666666666667,0)" xlink:href="#ar"/><use transform="matrix(0.04938271604938272,0,0,0.04938271604938272,27.604938271604947,0)" xlink:href="#ao"/></g><path d="M197 0v-115H63V0H30v-248h33v105h134v-105h34V0h-34" id="bg"/><path d="M127-220V0H93v-220H8v-28h204v28h-85" id="bh"/><g id="r"><use transform="matrix(0.04938271604938272,0,0,0.04938271604938272,0,0)" xlink:href="#bg"/><use transform="matrix(0.04938271604938272,0,0,0.04938271604938272,12.790123456790125,0)" xlink:href="#bh"/><use transform="matrix(0.04938271604938272,0,0,0.04938271604938272,23.60493827160494,0)" xlink:href="#an"/><use transform="matrix(0.04938271604938272,0,0,0.04938271604938272,38.370370370370374,0)" xlink:href="#au"/></g><path d="M212-179c-10-28-35-45-73-45-59 0-87 40-87 99 0 60 29 101 89 101 43 0 62-24 78-52l27 14C228-24 195 4 139 4 59 4 22-46 18-125c-6-104 99-153 187-111 19 9 31 26 39 46" id="bi"/><path d="M84 4C-5 8 30-112 23-190h32v120c0 31 7 50 39 49 72-2 45-101 50-169h31l1 190h-30c-1-10 1-25-2-33-11 22-28 36-60 37" id="bj"/><g id="s"><use transform="matrix(0.04938271604938272,0,0,0.04938271604938272,0,0)" xlink:href="#bi"/><use transform="matrix(0.04938271604938272,0,0,0.04938271604938272,12.790123456790125,0)" xlink:href="#al"/><use transform="matrix(0.04938271604938272,0,0,0.04938271604938272,22.66666666666667,0)" xlink:href="#am"/><use transform="matrix(0.04938271604938272,0,0,0.04938271604938272,32.543209876543216,0)" xlink:href="#aj"/><use transform="matrix(0.04938271604938272,0,0,0.04938271604938272,41.4320987654321,0)" xlink:href="#ar"/><use transform="matrix(0.04938271604938272,0,0,0.04938271604938272,46.370370370370374,0)" xlink:href="#aU"/><use transform="matrix(0.04938271604938272,0,0,0.04938271604938272,52.24691358024692,0)" xlink:href="#bj"/><use transform="matrix(0.04938271604938272,0,0,0.04938271604938272,62.12345679012346,0)" xlink:href="#av"/><use transform="matrix(0.04938271604938272,0,0,0.04938271604938272,71.01234567901236,0)" xlink:href="#ar"/><use transform="matrix(0.04938271604938272,0,0,0.04938271604938272,75.95061728395063,0)" xlink:href="#ak"/><use transform="matrix(0.04938271604938272,0,0,0.04938271604938272,79.85185185185188,0)" xlink:href="#al"/><use transform="matrix(0.04938271604938272,0,0,0.04938271604938272,89.72839506172842,0)" xlink:href="#am"/></g><path d="M231 0h-52l-39-155L100 0H48L-1-190h46L77-45c9-52 24-97 36-145h53l37 145 32-145h46" id="bk"/><g id="t"><use transform="matrix(0.04938271604938272,0,0,0.04938271604938272,0,0)" xlink:href="#bk"/><use transform="matrix(0.04938271604938272,0,0,0.04938271604938272,13.827160493827162,0)" xlink:href="#aQ"/><use transform="matrix(0.04938271604938272,0,0,0.04938271604938272,18.765432098765434,0)" xlink:href="#aE"/><use transform="matrix(0.04938271604938272,0,0,0.04938271604938272,24.641975308641978,0)" xlink:href="#aN"/></g><path d="M133-34C117-15 103 5 69 4 32 3 11-16 11-54c-1-60 55-63 116-61 1-26-3-47-28-47-18 1-26 9-28 27l-52-2c7-38 36-58 82-57s74 22 75 68l1 82c-1 14 12 18 25 15v27c-30 8-71 5-69-32zm-48 3c29 0 43-24 42-57-32 0-66-3-65 30 0 17 8 27 23 27" id="bl"/><g id="u"><use transform="matrix(0.04938271604938272,0,0,0.04938271604938272,0,0)" xlink:href="#bl"/><use transform="matrix(0.04938271604938272,0,0,0.04938271604938272,9.876543209876544,0)" xlink:href="#aO"/><use transform="matrix(0.04938271604938272,0,0,0.04938271604938272,19.75308641975309,0)" xlink:href="#aE"/><use transform="matrix(0.04938271604938272,0,0,0.04938271604938272,25.629629629629633,0)" xlink:href="#aQ"/><use transform="matrix(0.04938271604938272,0,0,0.04938271604938272,30.567901234567906,0)" xlink:href="#aR"/><use transform="matrix(0.04938271604938272,0,0,0.04938271604938272,41.38271604938272,0)" xlink:href="#aS"/></g><path d="M88-194c31-1 46 15 58 34l-1-101h50l1 261h-48c-2-10 0-23-3-31C134-8 116 4 84 4 32 4 16-41 15-95c0-56 19-97 73-99zm17 164c33 0 40-30 41-66 1-37-9-64-41-64s-38 30-39 65c0 43 13 65 39 65" id="bm"/><path d="M102-93c0 74-22 123-52 168H0C30 29 54-18 53-93c0-74-22-123-53-168h50c30 45 52 94 52 168" id="bn"/><g id="v"><use transform="matrix(0.04938271604938272,0,0,0.04938271604938272,0,0)" xlink:href="#bm"/><use transform="matrix(0.04938271604938272,0,0,0.04938271604938272,10.814814814814815,0)" xlink:href="#aA"/><use transform="matrix(0.04938271604938272,0,0,0.04938271604938272,20.69135802469136,0)" xlink:href="#aE"/><use transform="matrix(0.04938271604938272,0,0,0.04938271604938272,26.567901234567902,0)" xlink:href="#bl"/><use transform="matrix(0.04938271604938272,0,0,0.04938271604938272,36.44444444444445,0)" xlink:href="#aQ"/><use transform="matrix(0.04938271604938272,0,0,0.04938271604938272,41.38271604938272,0)" xlink:href="#aL"/><use transform="matrix(0.04938271604938272,0,0,0.04938271604938272,46.320987654320994,0)" xlink:href="#aD"/><use transform="matrix(0.04938271604938272,0,0,0.04938271604938272,56.19753086419754,0)" xlink:href="#bn"/></g><g id="x"><use transform="matrix(0.04938271604938272,0,0,0.04938271604938272,0,0)" xlink:href="#aH"/><use transform="matrix(0.04938271604938272,0,0,0.04938271604938272,11.851851851851853,0)" xlink:href="#aA"/><use transform="matrix(0.04938271604938272,0,0,0.04938271604938272,21.7283950617284,0)" xlink:href="#aD"/><use transform="matrix(0.04938271604938272,0,0,0.04938271604938272,31.60493827160494,0)" xlink:href="#aD"/><use transform="matrix(0.04938271604938272,0,0,0.04938271604938272,41.48148148148149,0)" xlink:href="#aQ"/><use transform="matrix(0.04938271604938272,0,0,0.04938271604938272,46.41975308641976,0)" xlink:href="#aR"/><use transform="matrix(0.04938271604938272,0,0,0.04938271604938272,57.23456790123457,0)" xlink:href="#aS"/></g><path d="M147 0H94L2-248h55l64 206c17-72 42-137 63-206h54" id="bo"/><g id="y"><use transform="matrix(0.04938271604938272,0,0,0.04938271604938272,0,0)" xlink:href="#bo"/><use transform="matrix(0.04938271604938272,0,0,0.04938271604938272,10.864197530864198,0)" xlink:href="#bl"/><use transform="matrix(0.04938271604938272,0,0,0.04938271604938272,20.74074074074074,0)" xlink:href="#aL"/><use transform="matrix(0.04938271604938272,0,0,0.04938271604938272,25.679012345679016,0)" xlink:href="#aQ"/><use transform="matrix(0.04938271604938272,0,0,0.04938271604938272,30.617283950617285,0)" xlink:href="#bm"/><use transform="matrix(0.04938271604938272,0,0,0.04938271604938272,41.4320987654321,0)" xlink:href="#bl"/><use transform="matrix(0.04938271604938272,0,0,0.04938271604938272,51.308641975308646,0)" xlink:href="#aE"/><use transform="matrix(0.04938271604938272,0,0,0.04938271604938272,57.18518518518519,0)" xlink:href="#aA"/><use transform="matrix(0.04938271604938272,0,0,0.04938271604938272,67.06172839506173,0)" xlink:href="#bm"/></g><path fill="#3a414a" d="M240-174c0 40-23 61-54 70L253 0h-59l-57-94H76V0H24v-248c93 4 217-23 216 74zM76-134c48-2 112 12 112-38 0-48-66-32-112-35v73" id="bp"/><path fill="#3a414a" d="M185-48c-13 30-37 53-82 52C43 2 14-33 14-96s30-98 90-98c62 0 83 45 84 108H66c0 31 8 55 39 56 18 0 30-7 34-22zm-45-69c5-46-57-63-70-21-2 6-4 13-4 21h74" id="bq"/><path fill="#3a414a" d="M115-3C79 11 28 4 28-45v-112H4v-33h27l15-45h31v45h36v33H77v99c-1 23 16 31 38 25v30" id="br"/><path fill="#3a414a" d="M135-150c-39-12-60 13-60 57V0H25l-1-190h47c2 13-1 29 3 40 6-28 27-53 61-41v41" id="bs"/><path fill="#3a414a" d="M25-224v-37h50v37H25zM25 0v-190h50V0H25" id="bt"/><path fill="#3a414a" d="M128 0H69L1-190h53L99-40l48-150h52" id="bu"/><g id="z"><use transform="matrix(0.05,0,0,0.05,0,0)" xlink:href="#bp"/><use transform="matrix(0.05,0,0,0.05,12.950000000000001,0)" xlink:href="#bq"/><use transform="matrix(0.05,0,0,0.05,22.950000000000003,0)" xlink:href="#br"/><use transform="matrix(0.05,0,0,0.05,28.900000000000002,0)" xlink:href="#bs"/><use transform="matrix(0.05,0,0,0.05,35.900000000000006,0)" xlink:href="#bt"/><use transform="matrix(0.05,0,0,0.05,40.900000000000006,0)" xlink:href="#bq"/><use transform="matrix(0.05,0,0,0.05,50.900000000000006,0)" xlink:href="#bu"/><use transform="matrix(0.05,0,0,0.05,60.900000000000006,0)" xlink:href="#bq"/></g><path fill="#3a414a" d="M24-248c93 1 206-16 204 79-1 75-69 88-152 82V0H24v-248zm52 121c47 0 100 7 100-41 0-47-54-39-100-39v80" id="bv"/><path fill="#3a414a" d="M110-194c64 0 96 36 96 99 0 64-35 99-97 99-61 0-95-36-95-99 0-62 34-99 96-99zm-1 164c35 0 45-28 45-65 0-40-10-65-43-65-34 0-45 26-45 65 0 36 10 65 43 65" id="bw"/><path fill="#3a414a" d="M121-226c-27-7-43 5-38 36h38v33H83V0H34v-157H6v-33h28c-9-59 32-81 87-68v32" id="bx"/><path fill="#3a414a" d="M25 0v-261h50V0H25" id="by"/><g id="A"><use transform="matrix(0.05,0,0,0.05,0,0)" xlink:href="#bv"/><use transform="matrix(0.05,0,0,0.05,12,0)" xlink:href="#bw"/><use transform="matrix(0.05,0,0,0.05,22.950000000000003,0)" xlink:href="#bs"/><use transform="matrix(0.05,0,0,0.05,29.950000000000003,0)" xlink:href="#br"/><use transform="matrix(0.05,0,0,0.05,35.900000000000006,0)" xlink:href="#bx"/><use transform="matrix(0.05,0,0,0.05,41.85000000000001,0)" xlink:href="#bw"/><use transform="matrix(0.05,0,0,0.05,52.80000000000001,0)" xlink:href="#by"/><use transform="matrix(0.05,0,0,0.05,57.80000000000001,0)" xlink:href="#bt"/><use transform="matrix(0.05,0,0,0.05,62.80000000000001,0)" xlink:href="#bw"/></g><path fill="#3a414a" d="M24-248c120-7 223 5 221 122C244-46 201 0 124 0H24v-248zM76-40c74 7 117-18 117-86 0-67-45-88-117-82v168" id="bz"/><path fill="#3a414a" d="M133-34C117-15 103 5 69 4 32 3 11-16 11-54c-1-60 55-63 116-61 1-26-3-47-28-47-18 1-26 9-28 27l-52-2c7-38 36-58 82-57s74 22 75 68l1 82c-1 14 12 18 25 15v27c-30 8-71 5-69-32zm-48 3c29 0 43-24 42-57-32 0-66-3-65 30 0 17 8 27 23 27" id="bA"/><g id="B"><use transform="matrix(0.05,0,0,0.05,0,0)" xlink:href="#bz"/><use transform="matrix(0.05,0,0,0.05,12.950000000000001,0)" xlink:href="#bA"/><use transform="matrix(0.05,0,0,0.05,22.950000000000003,0)" xlink:href="#br"/><use transform="matrix(0.05,0,0,0.05,28.900000000000002,0)" xlink:href="#bA"/></g><path fill="#3a414a" d="M190-63c-7 42-38 67-86 67-59 0-84-38-90-98-12-110 154-137 174-36l-49 2c-2-19-15-32-35-32-30 0-35 28-38 64-6 74 65 87 74 30" id="bB"/><path fill="#3a414a" d="M137-138c1-29-70-34-71-4 15 46 118 7 119 86 1 83-164 76-172 9l43-7c4 19 20 25 44 25 33 8 57-30 24-41C81-84 22-81 20-136c-2-80 154-74 161-7" id="bC"/><g id="C"><use transform="matrix(0.05,0,0,0.05,0,0)" xlink:href="#bv"/><use transform="matrix(0.05,0,0,0.05,12,0)" xlink:href="#bs"/><use transform="matrix(0.05,0,0,0.05,19,0)" xlink:href="#bw"/><use transform="matrix(0.05,0,0,0.05,29.950000000000003,0)" xlink:href="#bB"/><use transform="matrix(0.05,0,0,0.05,39.95,0)" xlink:href="#bq"/><use transform="matrix(0.05,0,0,0.05,49.95,0)" xlink:href="#bC"/><use transform="matrix(0.05,0,0,0.05,59.95,0)" xlink:href="#bC"/></g><path fill="#3a414a" d="M182-130c37 4 62 22 62 59C244 23 116-4 24 0v-248c84 5 203-23 205 63 0 31-19 50-47 55zM76-148c40-3 101 13 101-30 0-44-60-28-101-31v61zm0 110c48-3 116 14 116-37 0-48-69-32-116-35v72" id="bD"/><path fill="#3a414a" d="M85 4C-2 5 27-109 22-190h50c7 57-23 150 33 157 60-5 35-97 40-157h50l1 190h-47c-2-12 1-28-3-38-12 25-28 42-61 42" id="bE"/><path fill="#3a414a" d="M123 10C108 53 80 86 19 72V37c35 8 53-11 59-39L3-190h52l48 148c12-52 28-100 44-148h51" id="bF"/><path fill="#3a414a" d="M4 7l51-268h42L46 7H4" id="bG"/><path fill="#3a414a" d="M169-182c-1-43-94-46-97-3 18 66 151 10 154 114 3 95-165 93-204 36-6-8-10-19-12-30l50-8c3 46 112 56 116 5-17-69-150-10-154-114-4-87 153-88 188-35 5 8 8 18 10 28" id="bH"/><g id="D"><use transform="matrix(0.05,0,0,0.05,0,0)" xlink:href="#bD"/><use transform="matrix(0.05,0,0,0.05,12.950000000000001,0)" xlink:href="#bE"/><use transform="matrix(0.05,0,0,0.05,23.900000000000002,0)" xlink:href="#bF"/><use transform="matrix(0.05,0,0,0.05,33.900000000000006,0)" xlink:href="#bG"/><use transform="matrix(0.05,0,0,0.05,38.900000000000006,0)" xlink:href="#bH"/><use transform="matrix(0.05,0,0,0.05,50.900000000000006,0)" xlink:href="#bq"/><use transform="matrix(0.05,0,0,0.05,60.900000000000006,0)" xlink:href="#by"/><use transform="matrix(0.05,0,0,0.05,65.9,0)" xlink:href="#by"/></g><path fill="#3a414a" d="M84 4C32 4 15-41 15-95c0-55 18-99 73-99 29 0 47 12 58 34l2-30h48l-1 265h-49V-32C136-9 114 4 84 4zm21-34c32 0 41-29 41-66 0-36-9-64-40-64-33 0-39 30-40 65 0 43 13 65 39 65" id="bI"/><g id="E"><use transform="matrix(0.05,0,0,0.05,0,0)" xlink:href="#bp"/><use transform="matrix(0.05,0,0,0.05,12.950000000000001,0)" xlink:href="#bq"/><use transform="matrix(0.05,0,0,0.05,22.950000000000003,0)" xlink:href="#bI"/><use transform="matrix(0.05,0,0,0.05,33.900000000000006,0)" xlink:href="#bE"/><use transform="matrix(0.05,0,0,0.05,44.85000000000001,0)" xlink:href="#bq"/><use transform="matrix(0.05,0,0,0.05,54.85,0)" xlink:href="#bC"/><use transform="matrix(0.05,0,0,0.05,64.85000000000001,0)" xlink:href="#br"/></g><path fill="#3a414a" d="M238-95c0 69-44 99-111 99C63 4 22-25 22-93v-155h51v151c-1 38 19 59 55 60 90 1 49-130 58-211h52v153" id="bJ"/><g id="F"><use transform="matrix(0.05,0,0,0.05,0,0)" xlink:href="#bJ"/><use transform="matrix(0.05,0,0,0.05,12.950000000000001,0)" xlink:href="#bC"/><use transform="matrix(0.05,0,0,0.05,22.950000000000003,0)" xlink:href="#bq"/><use transform="matrix(0.05,0,0,0.05,32.95,0)" xlink:href="#bs"/></g><g id="G"><use transform="matrix(0.05,0,0,0.05,0,0)" xlink:href="#bz"/><use transform="matrix(0.05,0,0,0.05,12.950000000000001,0)" xlink:href="#bA"/><use transform="matrix(0.05,0,0,0.05,22.950000000000003,0)" xlink:href="#br"/><use transform="matrix(0.05,0,0,0.05,28.900000000000002,0)" xlink:href="#bA"/></g><path d="M76-208v77h127v40H76V0H24v-248h183v40H76" id="bK"/><g id="H"><use transform="matrix(0.04938271604938272,0,0,0.04938271604938272,0,0)" xlink:href="#bK"/><use transform="matrix(0.04938271604938272,0,0,0.04938271604938272,10.814814814814815,0)" xlink:href="#aA"/><use transform="matrix(0.04938271604938272,0,0,0.04938271604938272,20.69135802469136,0)" xlink:href="#aE"/><use transform="matrix(0.04938271604938272,0,0,0.04938271604938272,26.567901234567902,0)" xlink:href="#aO"/><use transform="matrix(0.04938271604938272,0,0,0.04938271604938272,36.44444444444445,0)" xlink:href="#aN"/></g><path d="M175 0L67-191c6 58 2 128 3 191H24v-248h59L193-55c-6-58-2-129-3-193h46V0h-61" id="bL"/><path d="M146-102V0H94v-102L6-248h54l60 105 60-105h54" id="bM"/><path d="M24 0v-248h195v40H76v63h132v40H76v65h150V0H24" id="bN"/><g id="I"><use transform="matrix(0.04938271604938272,0,0,0.04938271604938272,0,0)" xlink:href="#bL"/><use transform="matrix(0.04938271604938272,0,0,0.04938271604938272,12.790123456790125,0)" xlink:href="#bM"/><use transform="matrix(0.04938271604938272,0,0,0.04938271604938272,24.641975308641978,0)" xlink:href="#aH"/><use transform="matrix(0.04938271604938272,0,0,0.04938271604938272,36.49382716049383,0)" xlink:href="#bN"/></g><g id="J"><use transform="matrix(0.04938271604938272,0,0,0.04938271604938272,0,0)" xlink:href="#ay"/><use transform="matrix(0.04938271604938272,0,0,0.04938271604938272,11.851851851851853,0)" xlink:href="#az"/><use transform="matrix(0.04938271604938272,0,0,0.04938271604938272,18.765432098765434,0)" xlink:href="#aQ"/><use transform="matrix(0.04938271604938272,0,0,0.04938271604938272,23.703703703703706,0)" xlink:href="#aO"/><use transform="matrix(0.04938271604938272,0,0,0.04938271604938272,33.580246913580254,0)" xlink:href="#aA"/></g><path fill="#3a414a" d="M135-194c87-1 58 113 63 194h-50c-7-57 23-157-34-157-59 0-34 97-39 157H25l-1-190h47c2 12-1 28 3 38 12-26 28-41 61-42" id="bO"/><g id="K"><use transform="matrix(0.05,0,0,0.05,0,0)" xlink:href="#bp"/><use transform="matrix(0.05,0,0,0.05,12.950000000000001,0)" xlink:href="#bq"/><use transform="matrix(0.05,0,0,0.05,22.950000000000003,0)" xlink:href="#br"/><use transform="matrix(0.05,0,0,0.05,28.900000000000002,0)" xlink:href="#bE"/><use transform="matrix(0.05,0,0,0.05,39.85,0)" xlink:href="#bs"/><use transform="matrix(0.05,0,0,0.05,46.85,0)" xlink:href="#bO"/></g><path fill="#3a414a" d="M67-125c0 53 21 87 73 88 37 1 54-22 65-47l45 17C233-25 199 4 140 4 58 4 20-42 15-125 8-235 124-281 211-232c18 10 29 29 36 50l-46 12c-8-25-30-41-62-41-52 0-71 34-72 86" id="bP"/><g id="L"><use transform="matrix(0.05,0,0,0.05,0,0)" xlink:href="#bP"/><use transform="matrix(0.05,0,0,0.05,12.950000000000001,0)" xlink:href="#bE"/><use transform="matrix(0.05,0,0,0.05,23.900000000000002,0)" xlink:href="#bs"/><use transform="matrix(0.05,0,0,0.05,30.900000000000002,0)" xlink:href="#bs"/><use transform="matrix(0.05,0,0,0.05,37.900000000000006,0)" xlink:href="#bq"/><use transform="matrix(0.05,0,0,0.05,47.900000000000006,0)" xlink:href="#bO"/><use transform="matrix(0.05,0,0,0.05,58.85,0)" xlink:href="#br"/></g><g id="M"><use transform="matrix(0.05,0,0,0.05,0,0)" xlink:href="#bv"/><use transform="matrix(0.05,0,0,0.05,12,0)" xlink:href="#bs"/><use transform="matrix(0.05,0,0,0.05,19,0)" xlink:href="#bt"/><use transform="matrix(0.05,0,0,0.05,24,0)" xlink:href="#bB"/><use transform="matrix(0.05,0,0,0.05,34,0)" xlink:href="#bq"/></g><path d="M238-95c0 69-44 99-111 99C63 4 22-25 22-93v-155h51v151c-1 38 19 59 55 60 90 1 49-130 58-211h52v153" id="bQ"/><path d="M135-194c53 0 70 44 70 98 0 56-19 98-73 100-31 1-45-17-59-34 3 33 2 69 2 105H25l-1-265h48c2 10 0 23 3 31 11-24 29-35 60-35zM114-30c33 0 39-31 40-66 0-38-9-64-40-64-56 0-55 130 0 130" id="bR"/><g id="N"><use transform="matrix(0.04938271604938272,0,0,0.04938271604938272,0,0)" xlink:href="#bQ"/><use transform="matrix(0.04938271604938272,0,0,0.04938271604938272,12.790123456790125,0)" xlink:href="#bR"/><use transform="matrix(0.04938271604938272,0,0,0.04938271604938272,23.60493827160494,0)" xlink:href="#bm"/><use transform="matrix(0.04938271604938272,0,0,0.04938271604938272,34.41975308641975,0)" xlink:href="#bl"/><use transform="matrix(0.04938271604938272,0,0,0.04938271604938272,44.2962962962963,0)" xlink:href="#aE"/><use transform="matrix(0.04938271604938272,0,0,0.04938271604938272,50.17283950617284,0)" xlink:href="#aA"/></g><path d="M121-226c-27-7-43 5-38 36h38v33H83V0H34v-157H6v-33h28c-9-59 32-81 87-68v32" id="bS"/><g id="O"><use transform="matrix(0.04938271604938272,0,0,0.04938271604938272,0,0)" xlink:href="#ay"/><use transform="matrix(0.04938271604938272,0,0,0.04938271604938272,11.851851851851853,0)" xlink:href="#aR"/><use transform="matrix(0.04938271604938272,0,0,0.04938271604938272,22.666666666666668,0)" xlink:href="#az"/><use transform="matrix(0.04938271604938272,0,0,0.04938271604938272,29.58024691358025,0)" xlink:href="#aE"/><use transform="matrix(0.04938271604938272,0,0,0.04938271604938272,35.45679012345679,0)" xlink:href="#bS"/><use transform="matrix(0.04938271604938272,0,0,0.04938271604938272,41.333333333333336,0)" xlink:href="#aR"/><use transform="matrix(0.04938271604938272,0,0,0.04938271604938272,52.14814814814815,0)" xlink:href="#aL"/><use transform="matrix(0.04938271604938272,0,0,0.04938271604938272,57.086419753086425,0)" xlink:href="#aQ"/><use transform="matrix(0.04938271604938272,0,0,0.04938271604938272,62.0246913580247,0)" xlink:href="#aR"/></g><g id="P"><use transform="matrix(0.04938271604938272,0,0,0.04938271604938272,0,0)" xlink:href="#aH"/><use transform="matrix(0.04938271604938272,0,0,0.04938271604938272,11.851851851851853,0)" xlink:href="#aE"/><use transform="matrix(0.04938271604938272,0,0,0.04938271604938272,17.728395061728396,0)" xlink:href="#aR"/><use transform="matrix(0.04938271604938272,0,0,0.04938271604938272,28.543209876543205,0)" xlink:href="#az"/><use transform="matrix(0.04938271604938272,0,0,0.04938271604938272,35.45679012345679,0)" xlink:href="#aA"/></g><g id="Q"><use transform="matrix(0.04938271604938272,0,0,0.04938271604938272,0,0)" xlink:href="#ax"/><use transform="matrix(0.04938271604938272,0,0,0.04938271604938272,9.82716049382716,0)" xlink:href="#az"/><use transform="matrix(0.04938271604938272,0,0,0.04938271604938272,16.74074074074074,0)" xlink:href="#bl"/><use transform="matrix(0.04938271604938272,0,0,0.04938271604938272,26.617283950617285,0)" xlink:href="#aS"/><use transform="matrix(0.04938271604938272,0,0,0.04938271604938272,37.4320987654321,0)" xlink:href="#aD"/><use transform="matrix(0.04938271604938272,0,0,0.04938271604938272,47.308641975308646,0)" xlink:href="#bl"/><use transform="matrix(0.04938271604938272,0,0,0.04938271604938272,57.18518518518519,0)" xlink:href="#aO"/><use transform="matrix(0.04938271604938272,0,0,0.04938271604938272,67.06172839506173,0)" xlink:href="#aE"/><use transform="matrix(0.04938271604938272,0,0,0.04938271604938272,72.93827160493828,0)" xlink:href="#aQ"/><use transform="matrix(0.04938271604938272,0,0,0.04938271604938272,77.87654320987656,0)" xlink:href="#aR"/><use transform="matrix(0.04938271604938272,0,0,0.04938271604938272,88.69135802469137,0)" xlink:href="#aS"/></g><path d="M24-248c120-7 223 5 221 122C244-46 201 0 124 0H24v-248zM76-40c74 7 117-18 117-86 0-67-45-88-117-82v168" id="bT"/><g id="R"><use transform="matrix(0.04938271604938272,0,0,0.04938271604938272,0,0)" xlink:href="#bT"/><use transform="matrix(0.04938271604938272,0,0,0.04938271604938272,12.790123456790125,0)" xlink:href="#bl"/><use transform="matrix(0.04938271604938272,0,0,0.04938271604938272,22.66666666666667,0)" xlink:href="#aE"/><use transform="matrix(0.04938271604938272,0,0,0.04938271604938272,28.54320987654322,0)" xlink:href="#bl"/></g><g id="S"><use transform="matrix(0.05,0,0,0.05,0,0)" xlink:href="#bz"/><use transform="matrix(0.05,0,0,0.05,12.950000000000001,0)" xlink:href="#bA"/><use transform="matrix(0.05,0,0,0.05,22.950000000000003,0)" xlink:href="#br"/><use transform="matrix(0.05,0,0,0.05,28.900000000000002,0)" xlink:href="#bA"/></g><path fill="#3a414a" d="M88-194c31-1 46 15 58 34l-1-101h50l1 261h-48c-2-10 0-23-3-31C134-8 116 4 84 4 32 4 16-41 15-95c0-56 19-97 73-99zm17 164c33 0 40-30 41-66 1-37-9-64-41-64s-38 30-39 65c0 43 13 65 39 65" id="bU"/><g id="T"><use transform="matrix(0.05,0,0,0.05,0,0)" xlink:href="#bH"/><use transform="matrix(0.05,0,0,0.05,12,0)" xlink:href="#br"/><use transform="matrix(0.05,0,0,0.05,17.95,0)" xlink:href="#bw"/><use transform="matrix(0.05,0,0,0.05,28.899999999999995,0)" xlink:href="#bs"/><use transform="matrix(0.05,0,0,0.05,35.9,0)" xlink:href="#bq"/><use transform="matrix(0.05,0,0,0.05,45.9,0)" xlink:href="#bU"/></g><path d="M67-125c0 54 23 88 75 88 28 0 53-7 68-21v-34h-60v-39h108v91C232-14 192 4 140 4 58 4 20-42 15-125 8-236 126-280 215-234c19 10 29 26 37 47l-47 15c-11-23-29-39-63-39-53 1-75 33-75 86" id="bV"/><g id="U"><use transform="matrix(0.04938271604938272,0,0,0.04938271604938272,0,0)" xlink:href="#bV"/><use transform="matrix(0.04938271604938272,0,0,0.04938271604938272,13.827160493827162,0)" xlink:href="#aA"/><use transform="matrix(0.04938271604938272,0,0,0.04938271604938272,23.703703703703706,0)" xlink:href="#aS"/><use transform="matrix(0.04938271604938272,0,0,0.04938271604938272,34.51851851851852,0)" xlink:href="#aA"/><use transform="matrix(0.04938271604938272,0,0,0.04938271604938272,44.39506172839506,0)" xlink:href="#az"/><use transform="matrix(0.04938271604938272,0,0,0.04938271604938272,51.308641975308646,0)" xlink:href="#bl"/><use transform="matrix(0.04938271604938272,0,0,0.04938271604938272,61.18518518518519,0)" xlink:href="#aE"/><use transform="matrix(0.04938271604938272,0,0,0.04938271604938272,67.06172839506173,0)" xlink:href="#aA"/></g><path d="M230 0l2-204L168 0h-37L68-204 70 0H24v-248h70l56 185 57-185h69V0h-46" id="bW"/><path d="M24 0v-248h52v208h133V0H24" id="bX"/><g id="V"><use transform="matrix(0.04938271604938272,0,0,0.04938271604938272,0,0)" xlink:href="#aw"/><use transform="matrix(0.04938271604938272,0,0,0.04938271604938272,12.790123456790125,0)" xlink:href="#ax"/><use transform="matrix(0.04938271604938272,0,0,0.04938271604938272,23.60493827160494,0)" xlink:href="#bW"/><use transform="matrix(0.04938271604938272,0,0,0.04938271604938272,38.370370370370374,0)" xlink:href="#bX"/></g><path d="M220-157c-53 9-28 100-34 157h-49v-107c1-27-5-49-29-50C55-147 81-57 75 0H25l-1-190h47c2 12-1 28 3 38 10-53 101-56 108 0 13-22 24-43 59-42 82 1 51 116 57 194h-49v-107c-1-25-5-48-29-50" id="bY"/><g id="W"><use transform="matrix(0.04938271604938272,0,0,0.04938271604938272,0,0)" xlink:href="#bT"/><use transform="matrix(0.04938271604938272,0,0,0.04938271604938272,12.790123456790125,0)" xlink:href="#aR"/><use transform="matrix(0.04938271604938272,0,0,0.04938271604938272,23.60493827160494,0)" xlink:href="#aO"/><use transform="matrix(0.04938271604938272,0,0,0.04938271604938272,33.48148148148148,0)" xlink:href="#aC"/><use transform="matrix(0.04938271604938272,0,0,0.04938271604938272,44.2962962962963,0)" xlink:href="#bY"/><use transform="matrix(0.04938271604938272,0,0,0.04938271604938272,60.09876543209877,0)" xlink:href="#aA"/><use transform="matrix(0.04938271604938272,0,0,0.04938271604938272,69.97530864197532,0)" xlink:href="#aS"/><use transform="matrix(0.04938271604938272,0,0,0.04938271604938272,80.79012345679013,0)" xlink:href="#aE"/></g><path d="M24 0v-261h32V0H24" id="bZ"/><g id="X"><use transform="matrix(0.04938271604938272,0,0,0.04938271604938272,0,0)" xlink:href="#bh"/><use transform="matrix(0.04938271604938272,0,0,0.04938271604938272,8.839506172839506,0)" xlink:href="#ai"/><use transform="matrix(0.04938271604938272,0,0,0.04938271604938272,18.71604938271605,0)" xlink:href="#aq"/><use transform="matrix(0.04938271604938272,0,0,0.04938271604938272,33.48148148148148,0)" xlink:href="#at"/><use transform="matrix(0.04938271604938272,0,0,0.04938271604938272,43.358024691358025,0)" xlink:href="#bZ"/><use transform="matrix(0.04938271604938272,0,0,0.04938271604938272,47.25925925925926,0)" xlink:href="#ao"/><use transform="matrix(0.04938271604938272,0,0,0.04938271604938272,57.135802469135804,0)" xlink:href="#ar"/><use transform="matrix(0.04938271604938272,0,0,0.04938271604938272,62.074074074074076,0)" xlink:href="#ai"/></g><g id="Y"><use transform="matrix(0.04938271604938272,0,0,0.04938271604938272,0,0)" xlink:href="#aX"/><use transform="matrix(0.04938271604938272,0,0,0.04938271604938272,11.851851851851853,0)" xlink:href="#am"/><use transform="matrix(0.04938271604938272,0,0,0.04938271604938272,21.7283950617284,0)" xlink:href="#ap"/><use transform="matrix(0.04938271604938272,0,0,0.04938271604938272,31.60493827160494,0)" xlink:href="#ak"/><use transform="matrix(0.04938271604938272,0,0,0.04938271604938272,35.50617283950618,0)" xlink:href="#am"/><use transform="matrix(0.04938271604938272,0,0,0.04938271604938272,45.38271604938272,0)" xlink:href="#ai"/></g><path d="M195-6C206 82 75 100 31 46c-4-6-6-13-8-21l49-6c3 16 16 24 34 25 40 0 42-37 40-79-11 22-30 35-61 35-53 0-70-43-70-97 0-56 18-96 73-97 30 0 46 14 59 34l2-30h47zm-90-29c32 0 41-27 41-63 0-35-9-62-40-62-32 0-39 29-40 63 0 36 9 62 39 62" id="ca"/><g id="Z"><use transform="matrix(0.04938271604938272,0,0,0.04938271604938272,0,0)" xlink:href="#ca"/><use transform="matrix(0.04938271604938272,0,0,0.04938271604938272,10.814814814814815,0)" xlink:href="#aA"/><use transform="matrix(0.04938271604938272,0,0,0.04938271604938272,20.69135802469136,0)" xlink:href="#aE"/><use transform="matrix(0.04938271604938272,0,0,0.04938271604938272,26.567901234567902,0)" xlink:href="#ax"/><use transform="matrix(0.04938271604938272,0,0,0.04938271604938272,36.04938271604939,0)" xlink:href="#aA"/><use transform="matrix(0.04938271604938272,0,0,0.04938271604938272,45.92592592592593,0)" xlink:href="#bY"/><use transform="matrix(0.04938271604938272,0,0,0.04938271604938272,61.7283950617284,0)" xlink:href="#bR"/><use transform="matrix(0.04938271604938272,0,0,0.04938271604938272,72.54320987654322,0)" xlink:href="#aL"/><use transform="matrix(0.04938271604938272,0,0,0.04938271604938272,77.4814814814815,0)" xlink:href="#bl"/><use transform="matrix(0.04938271604938272,0,0,0.04938271604938272,87.35802469135804,0)" xlink:href="#aE"/><use transform="matrix(0.04938271604938272,0,0,0.04938271604938272,93.23456790123458,0)" xlink:href="#aA"/><use transform="matrix(0.04938271604938272,0,0,0.04938271604938272,103.11111111111111,0)" xlink:href="#aF"/><use transform="matrix(0.04938271604938272,0,0,0.04938271604938272,108.98765432098766,0)" xlink:href="#bn"/></g><path fill="#3a414a" d="M186 0v-106H76V0H24v-248h52v99h110v-99h50V0h-50" id="cb"/><path fill="#3a414a" d="M136-208V0H84v-208H4v-40h212v40h-80" id="cc"/><path fill="#3a414a" d="M230 0l2-204L168 0h-37L68-204 70 0H24v-248h70l56 185 57-185h69V0h-46" id="cd"/><path fill="#3a414a" d="M24 0v-248h52v208h133V0H24" id="ce"/><g id="aa"><use transform="matrix(0.05,0,0,0.05,0,0)" xlink:href="#cb"/><use transform="matrix(0.05,0,0,0.05,12.950000000000001,0)" xlink:href="#cc"/><use transform="matrix(0.05,0,0,0.05,23.900000000000002,0)" xlink:href="#cd"/><use transform="matrix(0.05,0,0,0.05,38.85,0)" xlink:href="#ce"/></g><path fill="#3a414a" d="M220-157c-53 9-28 100-34 157h-49v-107c1-27-5-49-29-50C55-147 81-57 75 0H25l-1-190h47c2 12-1 28 3 38 10-53 101-56 108 0 13-22 24-43 59-42 82 1 51 116 57 194h-49v-107c-1-25-5-48-29-50" id="cf"/><g id="ab"><use transform="matrix(0.05,0,0,0.05,0,0)" xlink:href="#bz"/><use transform="matrix(0.05,0,0,0.05,12.950000000000001,0)" xlink:href="#bw"/><use transform="matrix(0.05,0,0,0.05,23.900000000000002,0)" xlink:href="#bB"/><use transform="matrix(0.05,0,0,0.05,33.900000000000006,0)" xlink:href="#bE"/><use transform="matrix(0.05,0,0,0.05,44.85000000000001,0)" xlink:href="#cf"/><use transform="matrix(0.05,0,0,0.05,60.85,0)" xlink:href="#bq"/><use transform="matrix(0.05,0,0,0.05,70.85000000000001,0)" xlink:href="#bO"/><use transform="matrix(0.05,0,0,0.05,81.80000000000001,0)" xlink:href="#br"/><use transform="matrix(0.05,0,0,0.05,87.75000000000001,0)" xlink:href="#bC"/></g><g id="ac"><use transform="matrix(0.05,0,0,0.05,0,0)" xlink:href="#cb"/><use transform="matrix(0.05,0,0,0.05,12.950000000000001,0)" xlink:href="#cc"/><use transform="matrix(0.05,0,0,0.05,23.900000000000002,0)" xlink:href="#cd"/><use transform="matrix(0.05,0,0,0.05,38.85,0)" xlink:href="#ce"/></g><g id="ad"><use transform="matrix(0.05,0,0,0.05,0,0)" xlink:href="#bz"/><use transform="matrix(0.05,0,0,0.05,12.950000000000001,0)" xlink:href="#bw"/><use transform="matrix(0.05,0,0,0.05,23.900000000000002,0)" xlink:href="#bB"/><use transform="matrix(0.05,0,0,0.05,33.900000000000006,0)" xlink:href="#bE"/><use transform="matrix(0.05,0,0,0.05,44.85000000000001,0)" xlink:href="#cf"/><use transform="matrix(0.05,0,0,0.05,60.85,0)" xlink:href="#bq"/><use transform="matrix(0.05,0,0,0.05,70.85000000000001,0)" xlink:href="#bO"/><use transform="matrix(0.05,0,0,0.05,81.80000000000001,0)" xlink:href="#br"/><use transform="matrix(0.05,0,0,0.05,87.75000000000001,0)" xlink:href="#bC"/></g><g id="ae"><use transform="matrix(0.04938271604938272,0,0,0.04938271604938272,0,0)" xlink:href="#bQ"/><use transform="matrix(0.04938271604938272,0,0,0.04938271604938272,12.790123456790125,0)" xlink:href="#bR"/><use transform="matrix(0.04938271604938272,0,0,0.04938271604938272,23.60493827160494,0)" xlink:href="#bm"/><use transform="matrix(0.04938271604938272,0,0,0.04938271604938272,34.41975308641975,0)" xlink:href="#bl"/><use transform="matrix(0.04938271604938272,0,0,0.04938271604938272,44.2962962962963,0)" xlink:href="#aE"/><use transform="matrix(0.04938271604938272,0,0,0.04938271604938272,50.17283950617284,0)" xlink:href="#aA"/><use transform="matrix(0.04938271604938272,0,0,0.04938271604938272,60.04938271604939,0)" xlink:href="#bm"/></g><g id="af"><use transform="matrix(0.04938271604938272,0,0,0.04938271604938272,0,0)" xlink:href="#bR"/><use transform="matrix(0.04938271604938272,0,0,0.04938271604938272,10.814814814814815,0)" xlink:href="#aR"/><use transform="matrix(0.04938271604938272,0,0,0.04938271604938272,21.62962962962963,0)" xlink:href="#az"/><use transform="matrix(0.04938271604938272,0,0,0.04938271604938272,28.543209876543205,0)" xlink:href="#aE"/><use transform="matrix(0.04938271604938272,0,0,0.04938271604938272,34.41975308641975,0)" xlink:href="#bS"/><use transform="matrix(0.04938271604938272,0,0,0.04938271604938272,40.2962962962963,0)" xlink:href="#aR"/><use transform="matrix(0.04938271604938272,0,0,0.04938271604938272,51.111111111111114,0)" xlink:href="#aL"/><use transform="matrix(0.04938271604938272,0,0,0.04938271604938272,56.04938271604939,0)" xlink:href="#aQ"/><use transform="matrix(0.04938271604938272,0,0,0.04938271604938272,60.98765432098766,0)" xlink:href="#aR"/></g><g id="ag"><use transform="matrix(0.04938271604938272,0,0,0.04938271604938272,0,0)" xlink:href="#bm"/><use transform="matrix(0.04938271604938272,0,0,0.04938271604938272,10.814814814814815,0)" xlink:href="#aQ"/><use transform="matrix(0.04938271604938272,0,0,0.04938271604938272,15.753086419753087,0)" xlink:href="#aD"/><use transform="matrix(0.04938271604938272,0,0,0.04938271604938272,25.629629629629633,0)" xlink:href="#bR"/><use transform="matrix(0.04938271604938272,0,0,0.04938271604938272,36.44444444444445,0)" xlink:href="#aL"/><use transform="matrix(0.04938271604938272,0,0,0.04938271604938272,41.38271604938272,0)" xlink:href="#bl"/><use transform="matrix(0.04938271604938272,0,0,0.04938271604938272,51.25925925925927,0)" xlink:href="#aJ"/></g></defs></g></svg>